<?xml version="1.0" encoding="UTF-8"?>
<svg id="Layer_2" data-name="Layer 2" xmlns="http://www.w3.org/2000/svg" xmlns:xlink="http://www.w3.org/1999/xlink" viewBox="0 0 102.29 95.64">
  <defs>
    <style>
      .cls-1 {
        fill: url(#linear-gradient-7);
      }

      .cls-2 {
        fill: url(#linear-gradient-5);
      }

      .cls-3 {
        fill: url(#linear-gradient-6);
      }

      .cls-4 {
        fill: url(#linear-gradient-4);
      }

      .cls-5 {
        fill: url(#linear-gradient-3);
      }

      .cls-6 {
        fill: url(#linear-gradient-2);
      }

      .cls-7 {
        fill: url(#linear-gradient);
      }
    </style>
    <linearGradient id="linear-gradient" x1="0" y1="47.82" x2="102.29" y2="47.82" gradientUnits="userSpaceOnUse">
      <stop offset="0" stop-color="#36f2ed"/>
      <stop offset="1" stop-color="#0053df"/>
    </linearGradient>
    <linearGradient id="linear-gradient-2" x1="53.41" y1="34.24" x2="89.29" y2="34.24" xlink:href="#linear-gradient"/>
    <linearGradient id="linear-gradient-3" x1="13.99" y1="15.63" x2="46.07" y2="15.63" xlink:href="#linear-gradient"/>
    <linearGradient id="linear-gradient-4" x1="14.02" y1="25.86" x2="46.08" y2="25.86" xlink:href="#linear-gradient"/>
    <linearGradient id="linear-gradient-5" x1="13.96" y1="36.16" x2="36.02" y2="36.16" xlink:href="#linear-gradient"/>
    <linearGradient id="linear-gradient-6" x1="39.01" y1="36.24" x2="46.04" y2="36.24" xlink:href="#linear-gradient"/>
    <linearGradient id="linear-gradient-7" x1="63.95" y1="66.57" x2="77.6" y2="66.57" xlink:href="#linear-gradient"/>
  </defs>
  <g id="_ëÎÓÈ_1" data-name="ëÎÓÈ 1">
    <g>
      <path class="cls-7" d="M83.05,57.72c5.96-.34,9.98.91,14.86-4.02,2.99-2.95,4.34-6.25,4.37-10.51v-25.92c0-1.97.09-3.78-.3-5.74C100.38,3.41,93.89.05,86.29.05h-48.21c-8,0-16.3-.11-24.27,0C9.35.5,5.9,2.07,3.02,5.56-.25,9.53,0,13.71,0,18.45v20.26c0,6.65-.34,11.17,5.4,15.84,4.75,3.86,9.86,3.04,15.54,3.04h17.72c1.68,3.3,4.06,7.21,5.9,10.47l12.86,22.75c1.11,1.93,1.71,3.86,4.06,4.59,3.04.98,6.3-1.24,6.42-4.46.08-2.11.23-8.41-.2-10.01-.16-.6-1.57-1-2.13-.66-1.14.71-.85,2.93-.84,4.09l.03,4.56c0,3.11-1.83,5.29-3.58,2.14l-18.17-32.15c-3.15-5.48-2.08-4.46-8.64-4.44h-17.18c-2.05,0-4.19.14-6.17-.46-6.58-1.99-7.83-7.07-7.83-12.98V14.72c.3-8.87,6.2-11.49,13.81-11.5h65.55c7.03,0,14.51-.09,16.32,8.98.31,1.54.19,3.54.19,5.14v19.6c0,7.19.47,15.53-8.92,17.43-2.44.49-5.59-.34-8.02.42-1.67.52-.75,3.09.94,2.91Z"/>
      <path class="cls-6" d="M75.42,12.2c-1.73-.43-3.77-.68-5.54-.43-7.79.32-16.23,7.35-16.46,15.37-.13,4.45,5.78,6.44,8.6,3.02.89-1.08,1.03-2.25,1.54-3.49,2.09-5,8.64-6.64,12.79-3.1,3.37,2.87,4.24,7.82,1.29,11.36-2.36,2.82-5.69,2.1-9.7,7.44-.33,1.14-1.03,2.14-1.37,3.29-.63,2.18-1.17,8.44-.35,10,.83,1.57,6.22,1.14,7.72.97,1.88-.2,1.92-1.71,1.9-3.3-.08-7.17.77-5.6,5.52-8.45,12.88-7.75,9.49-28.88-5.94-32.69ZM72.62,53.38h-3.51c-.03-5.44.64-11.34,6.7-13.3,1.87-.89,3.64-1.92,4.74-3.71,8.62-13.92-12.01-25.76-19.79-11.34-.71,1.31-.88,4.85-3.49,3.48-2.23-1.17,1.38-6.88,2.3-8.02,2.89-3.41,5.9-5.04,10.29-5.48.37-.06.94-.05,1.33-.06,15.07-.22,20.34,20.52,7.96,27.39-5.84,3.24-6.55,3.15-6.54,11.03Z"/>
      <path class="cls-5" d="M18.76,17.17h25.47c2.68-.1,2.1-3.15.36-3.16-1.17-.05-2.34-.03-3.5-.03h-25.06c-1.21.1-2.07.38-2.03,1.83.06,1.99,3.53,1.37,4.77,1.36Z"/>
      <path class="cls-4" d="M45.21,24.42c-.53-.28-26.79-.14-29.85-.13-2,.6-1.45,2.79-.39,2.98,1.9.34,4.77.19,6.79.19h18.71c1.39,0,3.11.05,4.47,0,1.35-.43,1.57-2.36.27-3.04Z"/>
      <path class="cls-2" d="M15.36,34.6c-2.25.9-1.58,3.19.47,3.17l16.57-.02c.67,0,1.69.06,2.33,0,1.47-.56,1.82-2.41.33-3.03-.36-.15-18.07-.23-19.7-.11Z"/>
      <path class="cls-3" d="M40.19,34.6c-.58.24-1.03.55-1.15,1.19-.47,2.61,4.11,2.19,5.89,1.96,1.51-.72,1.42-2.75-.03-3.03-1.18-.22-3.49-.17-4.72-.12Z"/>
      <path class="cls-1" d="M70.01,59.79c-3.75.42-6.45,3.81-6.01,7.56.43,3.75,3.82,6.44,7.57,6,3.74-.44,6.41-3.82,5.98-7.56-.43-3.74-3.8-6.42-7.54-6ZM71.26,70.19c-1.99.28-3.83-1.11-4.1-3.1-.27-1.99,1.12-3.82,3.12-4.09,1.98-.27,3.81,1.12,4.08,3.11.27,1.98-1.11,3.81-3.1,4.09Z"/>
    </g>
  </g>
</svg>