<?xml version="1.0" encoding="UTF-8"?>
<svg id="Layer_2" data-name="Layer 2" xmlns="http://www.w3.org/2000/svg" viewBox="0 0 75.89 96.42">
  <defs>
    <style>
      .cls-1 {
        fill: #2ab6f4;
      }
    </style>
  </defs>
  <g id="_ëÎÓÈ_1" data-name="ëÎÓÈ 1">
    <g id="_ëÎÓÈ_1-2" data-name=" ëÎÓÈ 1">
      <g>
        <path class="cls-1" d="M45.49,12.07c-1.25,0-2.26-1.01-2.26-2.26,0-2.92-2.37-5.29-5.29-5.29s-5.29,2.37-5.29,5.29c0,1.25-1.01,2.26-2.26,2.26s-2.26-1.01-2.26-2.26c0-5.41,4.4-9.81,9.81-9.81s9.81,4.4,9.81,9.81c0,1.25-1.01,2.26-2.26,2.26Z"/>
        <path class="cls-1" d="M7.52,28.66l6.78,3.91c.72.41,1.62.32,2.23-.24l9.18-8.34c.33-.3.8.12.55.49l-10.07,14.42c-.34.49-1.06.51-1.43.03l-7.57-9.89c-.16-.22.09-.5.32-.37h0Z"/>
        <path class="cls-1" d="M7.52,52.48l6.78,3.91c.72.41,1.62.32,2.23-.24l9.18-8.34c.33-.3.8.12.55.49l-10.07,14.42c-.34.49-1.06.51-1.43.03l-7.57-9.89c-.16-.22.09-.5.32-.37h0Z"/>
        <path class="cls-1" d="M7.52,76.3l6.78,3.91c.72.41,1.62.32,2.23-.24l9.18-8.34c.33-.3.8.12.55.49l-10.07,14.41c-.34.49-1.06.51-1.43.03l-7.57-9.89c-.16-.22.09-.5.32-.37h0Z"/>
        <path class="cls-1" d="M46.29,27.86h-17.05c-1.25,0-2.26-1.01-2.26-2.26s1.01-2.26,2.26-2.26h17.05c1.25,0,2.26,1.01,2.26,2.26s-1.01,2.26-2.26,2.26Z"/>
        <path class="cls-1" d="M67.93,34.6H30.77c-1.25,0-2.26-1.01-2.26-2.26s1.01-2.26,2.26-2.26h37.17c1.25,0,2.26,1.01,2.26,2.26s-1.01,2.26-2.26,2.26h-.01Z"/>
        <path class="cls-1" d="M62.64,39.41h-31.95c-1.25,0-2.26-1.01-2.26-2.26s1.01-2.26,2.26-2.26h31.95c1.25,0,2.26,1.01,2.26,2.26s-1.01,2.26-2.26,2.26Z"/>
        <path class="cls-1" d="M46.29,51.22h-17.05c-1.25,0-2.26-1.01-2.26-2.26s1.01-2.26,2.26-2.26h17.05c1.25,0,2.26,1.01,2.26,2.26s-1.01,2.26-2.26,2.26Z"/>
        <path class="cls-1" d="M65.12,57.96H30.77c-1.25,0-2.26-1.01-2.26-2.26s1.01-2.26,2.26-2.26h34.36c1.25,0,2.26,1.01,2.26,2.26s-1.01,2.26-2.26,2.26h-.01Z"/>
        <path class="cls-1" d="M60.76,62.77h-30.08c-1.25,0-2.26-1.01-2.26-2.26s1.01-2.26,2.26-2.26h30.08c1.25,0,2.26,1.01,2.26,2.26s-1.01,2.26-2.26,2.26Z"/>
        <path class="cls-1" d="M46.29,74.58h-17.05c-1.25,0-2.26-1.01-2.26-2.26s1.01-2.26,2.26-2.26h17.05c1.25,0,2.26,1.01,2.26,2.26s-1.01,2.26-2.26,2.26Z"/>
        <path class="cls-1" d="M68.4,81.32H30.77c-1.25,0-2.26-1.01-2.26-2.26s1.01-2.26,2.26-2.26h37.64c1.25,0,2.26,1.01,2.26,2.26s-1.01,2.26-2.26,2.26h-.01Z"/>
        <path class="cls-1" d="M63.1,86.13H30.69c-1.25,0-2.26-1.01-2.26-2.26s1.01-2.26,2.26-2.26h32.42c1.25,0,2.26,1.01,2.26,2.26s-1.01,2.26-2.26,2.26h-.01Z"/>
        <path class="cls-1" d="M73.62,96.42H2.26c-1.25,0-2.26-1.01-2.26-2.26V13.21c0-1.25,1.01-2.26,2.26-2.26h18.94c1.25,0,2.26,1.01,2.26,2.26s-1.01,2.26-2.26,2.26H4.52v76.44h66.85V15.47h-16.8c-1.25,0-2.26-1.01-2.26-2.26s1.01-2.26,2.26-2.26h19.06c1.25,0,2.26,1.01,2.26,2.26v80.95c0,1.25-1.01,2.26-2.26,2.26h0Z"/>
        <path class="cls-1" d="M51.3,18.23h-26.72c-2.9,0-5.26-2.36-5.26-5.26s2.36-5.26,5.26-5.26h26.72c2.9,0,5.26,2.36,5.26,5.26s-2.36,5.26-5.26,5.26ZM24.58,12.23c-.41,0-.74.33-.74.74s.33.75.74.75h26.72c.41,0,.74-.33.74-.75s-.33-.74-.74-.74h-26.72Z"/>
      </g>
    </g>
  </g>
</svg>