<?xml version="1.0" encoding="UTF-8"?>
<svg id="Layer_2" data-name="Layer 2" xmlns="http://www.w3.org/2000/svg" viewBox="0 0 85.13 107.83">
  <defs>
    <style>
      .cls-1 {
        fill: #2ab6f4;
      }
    </style>
  </defs>
  <g id="_ëÎÓÈ_1" data-name="ëÎÓÈ 1">
    <path class="cls-1" d="M0,3.11v101.62c0,1.67,1.08,3.11,2.35,3.11h80.44c1.26,0,2.35-1.43,2.35-3.11V3.11c0-1.67-1.08-3.11-2.35-3.11H2.35C1.08.24,0,1.67,0,3.11ZM80.44,6.22v95.64s-75.93,0-75.93,0V6.22s75.93,0,75.93,0Z"/>
    <path class="cls-1" d="M69.57,19.35H15.56c-2.18,0-4.05,1.85-4.05,4s1.87,4,4.05,4h54.01c2.18,0,4.05-1.85,4.05-4-.31-2.16-2.18-4-4.05-4Z"/>
    <path class="cls-1" d="M69.57,40.91H15.56c-2.18,0-4.05,1.85-4.05,4s1.87,4,4.05,4h54.01c2.18,0,4.05-1.85,4.05-4-.31-2.16-2.18-4-4.05-4Z"/>
    <path class="cls-1" d="M69.57,62.48H15.56c-2.18,0-4.05,1.85-4.05,4s1.87,4,4.05,4h54.01c2.18,0,4.05-1.85,4.05-4-.31-2.16-2.18-4-4.05-4Z"/>
    <path class="cls-1" d="M69.57,84.05H15.56c-2.18,0-4.05,1.85-4.05,4s1.87,4,4.05,4h54.01c2.18,0,4.05-1.85,4.05-4-.31-2.16-2.18-4-4.05-4Z"/>
  </g>
</svg>