<?xml version="1.0" encoding="UTF-8"?>
<svg id="Layer_2" data-name="Layer 2" xmlns="http://www.w3.org/2000/svg" viewBox="0 0 65.07 88.25">
  <defs>
    <style>
      .cls-1 {
        fill: none;
        stroke: #2ab6f4;
        stroke-miterlimit: 10;
        stroke-width: 4.25px;
      }
    </style>
  </defs>
  <g id="_ëÎÓÈ_1" data-name="ëÎÓÈ 1">
    <path class="cls-1" d="M21.24,39.46l.95-1.06c6.85-.55,11.66-1.63,14.41-3.25,2.76-1.61,4.13-3.68,4.13-6.2v-.12c0-2.05-.77-3.64-2.3-4.78-1.54-1.14-3.72-1.71-6.56-1.71s-5.63.67-8.62,2.01c-2.99,1.34-5.87,3.27-8.62,5.79L2.81,14.53c3.62-3.62,7.92-6.6,12.88-8.92,4.96-2.32,10.87-3.48,17.72-3.48,4.33,0,8.31.57,11.93,1.71,3.62,1.14,6.73,2.78,9.33,4.9,2.6,2.13,4.63,4.73,6.08,7.8,1.46,3.07,2.19,6.54,2.19,10.4v.24c0,3.7-.59,6.91-1.77,9.63s-2.8,5.04-4.84,6.97c-2.05,1.93-4.47,3.53-7.26,4.78-2.8,1.26-5.85,2.29-9.16,3.07l-1.42,7.56h-14.29l-2.95-19.73ZM19.35,66.04h23.39v20.08h-23.39v-20.08Z"/>
  </g>
</svg>