<?xml version="1.0" encoding="UTF-8"?>
<svg id="Layer_2" data-name="Layer 2" xmlns="http://www.w3.org/2000/svg" viewBox="0 0 85.13 106.97">
  <defs>
    <style>
      .cls-1 {
        fill: #2ab6f4;
      }
    </style>
  </defs>
  <g id="_ëÎÓÈ_1" data-name="ëÎÓÈ 1">
    <g>
      <path class="cls-1" d="M52.07,90.2H4.81c-2.65,0-4.81-2.16-4.81-4.81V4.81C0,2.16,2.16,0,4.81,0h51.41c.51,0,1.01.2,1.37.57l15.99,15.99c.36.36.57.86.57,1.37v48.28c0,1.07-.87,1.94-1.94,1.94s-1.94-.87-1.94-1.94V18.73l-14.86-14.86H4.81c-.51,0-.93.42-.93.93v80.59c0,.51.42.93.93.93h47.26c1.07,0,1.94.87,1.94,1.94s-.87,1.94-1.94,1.94Z"/>
      <path class="cls-1" d="M72.21,19.87h-13.11c-2.66,0-4.82-2.16-4.82-4.82V1.94c0-.78.47-1.49,1.2-1.79.72-.3,1.56-.13,2.11.42l15.99,15.99c.55.55.72,1.39.42,2.11-.3.72-1.01,1.2-1.79,1.2ZM58.15,6.61v8.43c0,.52.43.95.95.95h8.43l-9.38-9.38Z"/>
      <path class="cls-1" d="M50.91,23.82h-27.66c-1.25,0-2.26-1.01-2.26-2.26s1.01-2.26,2.26-2.26h27.66c1.25,0,2.26,1.01,2.26,2.26s-1.01,2.26-2.26,2.26Z"/>
      <path class="cls-1" d="M50.91,40.65h-27.66c-1.25,0-2.26-1.01-2.26-2.26s1.01-2.26,2.26-2.26h27.66c1.25,0,2.26,1.01,2.26,2.26s-1.01,2.26-2.26,2.26Z"/>
      <path class="cls-1" d="M46.32,66.59h-18.49c-1.25,0-2.26-1.01-2.26-2.26s1.01-2.26,2.26-2.26h18.49c1.25,0,2.26,1.01,2.26,2.26s-1.01,2.26-2.26,2.26Z"/>
      <path class="cls-1" d="M60.6,48.82H13.55c-1.25,0-2.26-1.01-2.26-2.26s1.01-2.26,2.26-2.26h47.05c1.25,0,2.26,1.01,2.26,2.26s-1.01,2.26-2.26,2.26Z"/>
      <path class="cls-1" d="M60.6,58.13H13.55c-1.25,0-2.26-1.01-2.26-2.26s1.01-2.26,2.26-2.26h47.05c1.25,0,2.26,1.01,2.26,2.26s-1.01,2.26-2.26,2.26Z"/>
      <path class="cls-1" d="M53.52,106.97c-.11,0-.22,0-.34-.02-.88-.13-1.61-.77-1.84-1.63l-1.27-4.63-4.7,1.01c-.89.19-1.81-.17-2.33-.92-.52-.75-.54-1.73-.05-2.5l7.44-11.71c.67-1.05,2.07-1.36,3.12-.7,1.05.67,1.36,2.06.7,3.12l-4.54,7.15,1.51-.32c1.17-.26,2.33.45,2.65,1.61l.49,1.78,5.53-8.68c.67-1.05,2.06-1.36,3.12-.69,1.05.67,1.36,2.07.69,3.12l-8.26,12.97c-.42.66-1.14,1.05-1.91,1.05Z"/>
      <path class="cls-1" d="M74.25,106.97c-.76,0-1.49-.39-1.91-1.05l-8.26-12.97c-.67-1.05-.36-2.45.69-3.12,1.05-.67,2.45-.36,3.12.69l5.53,8.68.49-1.78c.32-1.16,1.49-1.86,2.65-1.61l1.51.32-4.54-7.15c-.67-1.05-.36-2.45.7-3.12,1.05-.67,2.45-.36,3.12.7l7.44,11.71c.49.77.47,1.76-.05,2.5-.52.75-1.44,1.11-2.33.92l-4.7-1.01-1.27,4.63c-.24.86-.96,1.5-1.84,1.63-.11.02-.22.02-.34.02Z"/>
      <path class="cls-1" d="M68.79,94.88c-1.35,0-2.48-.72-3.48-1.35-.34-.22-.89-.56-1.17-.66-.28.1-.83.45-1.17.66-1,.63-2.13,1.35-3.48,1.35-.38,0-.74-.06-1.09-.17-1.84-.6-2.55-2.4-3.07-3.71-.14-.37-.35-.89-.5-1.14-.28-.07-.86-.11-1.26-.13-1.4-.09-3.33-.21-4.45-1.76-1.12-1.54-.65-3.39-.3-4.75.09-.37.24-.96.27-1.26-.19-.21-.61-.56-.91-.81-1.1-.91-2.6-2.15-2.6-4.1s1.5-3.19,2.6-4.1c.3-.25.75-.62.93-.83-.02-.21-.18-.85-.28-1.24-.34-1.36-.82-3.21.3-4.75,1.12-1.55,3.05-1.67,4.45-1.76.4-.03.98-.06,1.26-.13.15-.25.36-.78.5-1.14.52-1.32,1.23-3.12,3.07-3.71.35-.11.72-.17,1.09-.17,1.35,0,2.48.71,3.48,1.35.34.22.89.56,1.17.66.28-.1.83-.45,1.17-.66,1-.63,2.13-1.35,3.48-1.35.38,0,.74.06,1.09.17,1.84.6,2.55,2.4,3.07,3.71.14.37.35.89.5,1.14.28.07.86.11,1.26.13,1.4.09,3.33.21,4.45,1.76,1.12,1.54.65,3.39.3,4.75-.09.37-.24.96-.27,1.26.19.21.61.56.91.81,1.1.91,2.6,2.15,2.6,4.1s-1.5,3.19-2.6,4.1c-.3.25-.75.62-.93.83.02.21.18.85.28,1.24.34,1.36.82,3.21-.3,4.75-1.12,1.55-3.05,1.67-4.45,1.76-.4.03-.98.06-1.26.13-.15.25-.36.78-.5,1.14-.52,1.32-1.23,3.12-3.07,3.71-.35.11-.72.17-1.09.17ZM64.14,88.34c1.4,0,2.56.73,3.58,1.38.2.13.46.29.69.42.12-.26.24-.58.33-.8.44-1.1.93-2.36,2.03-3.15,1.11-.81,2.46-.89,3.65-.97.25-.02.58-.04.86-.07-.06-.27-.13-.58-.2-.82-.3-1.16-.63-2.48-.21-3.79.42-1.28,1.44-2.13,2.35-2.87.21-.17.49-.41.72-.62-.22-.21-.51-.45-.72-.62-.91-.75-1.94-1.6-2.35-2.88-.43-1.31-.09-2.63.21-3.79.06-.24.14-.55.2-.82-.28-.03-.6-.05-.86-.07-1.19-.08-2.54-.16-3.65-.97-1.1-.8-1.59-2.05-2.03-3.15-.09-.23-.21-.54-.33-.81-.23.13-.49.3-.69.42-1.02.65-2.18,1.38-3.58,1.38s-2.56-.73-3.58-1.38c-.2-.13-.46-.29-.69-.42-.12.26-.24.58-.33.8-.44,1.1-.93,2.36-2.03,3.15-1.11.81-2.46.89-3.65.97-.25.02-.58.04-.86.07.06.27.13.58.2.82.3,1.16.63,2.48.2,3.79-.41,1.28-1.44,2.13-2.35,2.88-.21.17-.49.41-.72.62.22.21.51.45.72.62.91.75,1.94,1.6,2.35,2.88.43,1.31.09,2.63-.2,3.79-.06.24-.14.55-.2.82.28.03.6.05.86.07,1.19.08,2.54.16,3.65.97,1.1.8,1.59,2.05,2.03,3.15.09.23.21.54.33.8.23-.13.49-.3.69-.42,1.02-.65,2.18-1.38,3.58-1.38Z"/>
      <path class="cls-1" d="M64.14,87.43c-5.72,0-10.37-4.66-10.37-10.38s4.65-10.38,10.37-10.38,10.37,4.66,10.37,10.38-4.65,10.38-10.37,10.38ZM64.14,70.59c-3.56,0-6.45,2.9-6.45,6.46s2.9,6.46,6.45,6.46,6.45-2.9,6.45-6.46-2.9-6.46-6.45-6.46Z"/>
    </g>
  </g>
</svg>