<?xml version="1.0" encoding="UTF-8"?>
<svg id="Layer_2" data-name="Layer 2" xmlns="http://www.w3.org/2000/svg" viewBox="0 0 100 118.09">
  <defs>
    <style>
      .cls-1 {
        fill: #2ab6f4;
      }
    </style>
  </defs>
  <g id="_ëÎÓÈ_1" data-name="ëÎÓÈ 1">
    <g>
      <path class="cls-1" d="M57.64,117.59h0c.45,0,.89-.17,1.23-.49l19.15-18.05c.36-.34.54-.81.55-1.29.19-.31.3-.68.3-1.08V29.82c0-4.17-3.39-7.56-7.56-7.56H7.56c-4.17,0-7.56,3.39-7.56,7.56v80.71c0,4.17,3.39,7.56,7.56,7.56h48.74c.51,0,.98-.19,1.34-.5ZM59.43,111.66v-6.94c0-2.86,2.33-5.19,5.19-5.19h7.67l-12.86,12.13ZM54.2,113.89H7.56c-1.85,0-3.36-1.51-3.36-3.36V29.82c0-1.85,1.51-3.36,3.36-3.36h63.75c1.85,0,3.36,1.51,3.36,3.36v64.77h-9.8c-5.89,0-10.68,4.79-10.68,10.67v8.63Z"/>
      <path class="cls-1" d="M95.42,25.77L36.84.61c-3.83-1.64-8.28.13-9.93,3.96l-8.05,18.74c1.45-.03,2.92.09,4.41.37l7.5-17.45c.73-1.7,2.71-2.5,4.42-1.76l58.58,25.16c1.7.73,2.49,2.71,1.76,4.42l-20.72,48.25c1.34.45,2.63,1.02,3.84,1.7l20.74-48.3c1.64-3.83-.13-8.28-3.96-9.93Z"/>
      <path class="cls-1" d="M16.33,50.15h46.2c1.16,0,2.1-.94,2.1-2.1v-3.76c0-1.16-.94-2.1-2.1-2.1H16.33c-1.16,0-2.1.94-2.1,2.1v3.76c0,1.16.94,2.1,2.1,2.1ZM16.75,44.71h45.36v2.92H16.75v-2.92Z"/>
      <path class="cls-1" d="M16.33,63.3h46.2c1.16,0,2.1-.94,2.1-2.1v-3.76c0-1.16-.94-2.1-2.1-2.1H16.33c-1.16,0-2.1.94-2.1,2.1v3.76c0,1.16.94,2.1,2.1,2.1ZM16.75,57.86h45.36v2.92H16.75v-2.92Z"/>
      <path class="cls-1" d="M64.64,74.35v-3.76c0-1.16-.94-2.1-2.1-2.1H16.33c-1.16,0-2.1.94-2.1,2.1v3.76c0,1.16.94,2.1,2.1,2.1h46.2c1.16,0,2.1-.94,2.1-2.1ZM62.12,73.93H16.75v-2.92h45.36v2.92Z"/>
    </g>
  </g>
</svg>