<?xml version="1.0" encoding="UTF-8"?>
<svg id="Layer_2" data-name="Layer 2" xmlns="http://www.w3.org/2000/svg" xmlns:xlink="http://www.w3.org/1999/xlink" viewBox="0 0 78.87 97.27">
  <defs>
    <style>
      .cls-1 {
        fill: url(#linear-gradient-5);
      }

      .cls-2 {
        fill: url(#linear-gradient-6);
      }

      .cls-3 {
        fill: url(#linear-gradient-4);
      }

      .cls-4 {
        fill: url(#linear-gradient-3);
      }

      .cls-5 {
        fill: url(#linear-gradient-2);
      }

      .cls-6 {
        fill: url(#linear-gradient);
      }
    </style>
    <linearGradient id="linear-gradient" x1="0" y1="34.51" x2="78.87" y2="34.51" gradientUnits="userSpaceOnUse">
      <stop offset="0" stop-color="#36f2ed"/>
      <stop offset="1" stop-color="#0053df"/>
    </linearGradient>
    <linearGradient id="linear-gradient-2" x1="14.23" y1="18.91" x2="64.64" y2="18.91" xlink:href="#linear-gradient"/>
    <linearGradient id="linear-gradient-3" x1="14.23" y1="32.07" x2="64.64" y2="32.07" xlink:href="#linear-gradient"/>
    <linearGradient id="linear-gradient-4" x1="14.23" y1="45.22" x2="64.64" y2="45.22" xlink:href="#linear-gradient"/>
    <linearGradient id="linear-gradient-5" y1="85.13" y2="85.13" xlink:href="#linear-gradient"/>
    <linearGradient id="linear-gradient-6" x1="21.62" y1="69.01" x2="57.25" y2="69.01" xlink:href="#linear-gradient"/>
  </defs>
  <g id="_ëÎÓÈ_1" data-name="ëÎÓÈ 1">
    <g>
      <path class="cls-6" d="M4.2,69V7.56c0-1.85,1.51-3.36,3.36-3.36h63.75c1.85,0,3.36,1.51,3.36,3.36v61.43c1.4-.04,2.8.03,4.19,0V7.56c0-4.17-3.39-7.56-7.56-7.56H7.56C3.39,0,0,3.39,0,7.56v61.43c1.4-.05,2.8.06,4.2,0Z"/>
      <path class="cls-5" d="M16.33,22.89h46.2c1.16,0,2.1-.94,2.1-2.1v-3.76c0-1.16-.94-2.1-2.1-2.1H16.33c-1.16,0-2.1.94-2.1,2.1v3.76c0,1.16.94,2.1,2.1,2.1ZM16.75,17.45h45.36v2.92H16.75v-2.92Z"/>
      <path class="cls-4" d="M16.33,36.04h46.2c1.16,0,2.1-.94,2.1-2.1v-3.76c0-1.16-.94-2.1-2.1-2.1H16.33c-1.16,0-2.1.94-2.1,2.1v3.76c0,1.16.94,2.1,2.1,2.1ZM16.75,30.61h45.36v2.92H16.75v-2.92Z"/>
      <path class="cls-3" d="M64.64,47.1v-3.76c0-1.16-.94-2.1-2.1-2.1H16.33c-1.16,0-2.1.94-2.1,2.1v3.76c0,1.16.94,2.1,2.1,2.1h46.2c1.16,0,2.1-.94,2.1-2.1ZM62.12,46.68H16.75v-2.92h45.36v2.92Z"/>
      <g>
        <path class="cls-1" d="M74.31,73c-2.52,0-4.55,2.04-4.55,4.55v10.6H9.11v-10.6c0-2.52-2.04-4.55-4.55-4.55s-4.55,2.04-4.55,4.55v15.16c0,2.52,2.04,4.55,4.55,4.55h69.76c2.52,0,4.55-2.04,4.55-4.55v-15.16c0-2.52-2.04-4.55-4.55-4.55Z"/>
        <path class="cls-2" d="M41.78,54.05c-.08-.08-.16-.15-.24-.22-.04-.03-.08-.06-.12-.09-.05-.04-.1-.07-.15-.11-.05-.03-.09-.06-.14-.09-.05-.03-.09-.06-.14-.08-.05-.03-.1-.05-.15-.07-.05-.02-.1-.05-.15-.07-.05-.02-.1-.04-.15-.05-.05-.02-.11-.04-.16-.06-.05-.01-.1-.03-.15-.04-.05-.01-.11-.03-.17-.04-.06-.01-.12-.02-.18-.03-.05,0-.1-.02-.15-.02-.11-.01-.22-.02-.33-.02s-.22,0-.33.02c-.05,0-.1.01-.15.02-.06,0-.12.02-.18.03-.06.01-.11.03-.17.04-.05.01-.1.02-.15.04-.05.02-.11.04-.16.06-.05.02-.1.03-.15.05-.05.02-.1.04-.15.07-.05.02-.1.05-.15.07-.05.03-.09.05-.14.08-.05.03-.1.05-.14.09-.05.03-.1.07-.15.11-.04.03-.08.06-.12.09-.08.07-.17.14-.24.22l-14.5,14.5c-1.29,1.29-1.29,3.39,0,4.69,1.29,1.29,3.39,1.29,4.69,0l8.85-8.85v17.23c0,1.83,1.48,3.31,3.31,3.31s3.31-1.48,3.31-3.31v-17.23l8.85,8.85c1.29,1.29,3.39,1.29,4.69,0,1.29-1.29,1.29-3.39,0-4.69l-14.5-14.5Z"/>
      </g>
    </g>
  </g>
</svg>