<?xml version="1.0" encoding="UTF-8"?>
<svg id="Layer_2" data-name="Layer 2" xmlns="http://www.w3.org/2000/svg" viewBox="0 0 105.71 112.01">
  <defs>
    <style>
      .cls-1 {
        fill: #2ab6f4;
      }
    </style>
  </defs>
  <g id="_ëÎÓÈ_1" data-name="ëÎÓÈ 1">
    <g>
      <path class="cls-1" d="M80.34,23.64H6.41c-1.25,0-2.26,1.01-2.26,2.26v3.6H1.93c-1.06,0-1.93.86-1.93,1.93s.86,1.93,1.93,1.93h2.23v4.25H1.93c-1.06,0-1.93.86-1.93,1.93s.86,1.93,1.93,1.93h2.23v4.25H1.93c-1.06,0-1.93.86-1.93,1.93s.86,1.93,1.93,1.93h2.23v4.25H1.93c-1.06,0-1.93.86-1.93,1.93s.86,1.93,1.93,1.93h2.23v4.25H1.93c-1.06,0-1.93.86-1.93,1.93s.86,1.93,1.93,1.93h2.23v4.25H1.93c-1.06,0-1.93.86-1.93,1.93s.86,1.93,1.93,1.93h2.23v4.25H1.93c-1.06,0-1.93.86-1.93,1.93s.86,1.93,1.93,1.93h2.23v4.25H1.93c-1.06,0-1.93.86-1.93,1.93s.86,1.93,1.93,1.93h2.23v4.25H1.93c-1.06,0-1.93.86-1.93,1.93s.86,1.93,1.93,1.93h2.23v4.11H1.93c-1.06,0-1.93.86-1.93,1.93s.86,1.93,1.93,1.93h2.23v3.6c0,1.25,1.01,2.26,2.26,2.26h73.92c1.25,0,2.26-1.01,2.26-2.26V25.89c0-1.25-1.01-2.26-2.26-2.26ZM78.08,107.5H8.67v-1.34h2.23c1.06,0,1.93-.86,1.93-1.93s-.86-1.93-1.93-1.93h-2.23v-4.11h2.23c1.06,0,1.93-.86,1.93-1.93s-.86-1.93-1.93-1.93h-2.23v-4.25h2.23c1.06,0,1.93-.86,1.93-1.93s-.86-1.93-1.93-1.93h-2.23v-4.25h2.23c1.06,0,1.93-.86,1.93-1.93s-.86-1.93-1.93-1.93h-2.23v-4.25h2.23c1.06,0,1.93-.86,1.93-1.93s-.86-1.93-1.93-1.93h-2.23v-4.25h2.23c1.06,0,1.93-.86,1.93-1.93s-.86-1.93-1.93-1.93h-2.23v-4.25h2.23c1.06,0,1.93-.86,1.93-1.93s-.86-1.93-1.93-1.93h-2.23v-4.25h2.23c1.06,0,1.93-.86,1.93-1.93s-.86-1.93-1.93-1.93h-2.23v-4.25h2.23c1.06,0,1.93-.86,1.93-1.93s-.86-1.93-1.93-1.93h-2.23v-4.25h2.23c1.06,0,1.93-.86,1.93-1.93s-.86-1.93-1.93-1.93h-2.23v-1.34h69.41v79.34Z"/>
      <path class="cls-1" d="M18.17,51.89h51.31c1.25,0,2.26-1.01,2.26-2.26v-9.93c0-1.25-1.01-2.26-2.26-2.26H18.17c-1.25,0-2.26,1.01-2.26,2.26v9.93c0,1.25,1.01,2.26,2.26,2.26ZM20.43,41.96h46.79v5.41H20.43v-5.41Z"/>
    </g>
    <path class="cls-1" d="M101.14,25.77L42.56.61c-3.83-1.64-8.28.13-9.93,3.96l-8.05,18.74c1.45-.03,2.92.09,4.41.37l7.5-17.45c.73-1.7,2.71-2.5,4.42-1.76l58.58,25.16c1.7.73,2.49,2.71,1.76,4.42l-20.72,48.25c1.34.45,2.63,1.02,3.84,1.7l20.74-48.3c1.64-3.83-.13-8.28-3.96-9.93Z"/>
  </g>
</svg>