<?xml version="1.0" encoding="UTF-8"?>
<svg id="Layer_2" data-name="Layer 2" xmlns="http://www.w3.org/2000/svg" viewBox="0 0 90.74 107.83">
  <defs>
    <style>
      .cls-1 {
        fill: #2ab6f4;
      }
    </style>
  </defs>
  <g id="_ëÎÓÈ_1" data-name="ëÎÓÈ 1">
    <path class="cls-1" d="M88.39,0H7.95c-1.26.24-2.35,1.67-2.35,3.11v25.96c.67-.07,1.35-.1,2.03-.1.84,0,1.67.05,2.48.14V6.22h75.93v95.64H10.12v-27.45c-.82.1-1.65.16-2.48.16-.69,0-1.36-.04-2.03-.09v30.26c0,1.67,1.08,3.11,2.35,3.11h80.44c1.26,0,2.35-1.43,2.35-3.11V3.11c0-1.67-1.08-3.11-2.35-3.11Z"/>
    <path class="cls-1" d="M45.52,57.05c.11-.11.21-.22.3-.33.04-.05.08-.11.12-.16.05-.07.1-.13.15-.2.04-.06.08-.13.12-.19.04-.06.08-.12.11-.19.04-.07.07-.14.1-.2.03-.07.06-.13.09-.2.03-.07.05-.13.07-.2.03-.07.05-.14.08-.22.02-.07.04-.14.05-.21.02-.08.04-.15.06-.23.02-.08.03-.16.04-.24,0-.07.02-.13.03-.2.01-.15.02-.3.02-.45s0-.3-.02-.45c0-.07-.02-.13-.03-.2-.01-.08-.02-.16-.04-.24-.02-.08-.04-.15-.06-.23-.02-.07-.03-.14-.05-.21-.02-.07-.05-.15-.08-.22-.02-.07-.05-.14-.07-.2-.03-.07-.06-.13-.09-.2-.03-.07-.06-.14-.1-.2-.03-.06-.07-.13-.11-.19-.04-.07-.08-.13-.12-.19-.05-.07-.1-.13-.15-.2-.04-.05-.08-.11-.12-.16-.1-.12-.2-.23-.3-.33l-19.96-19.96c-1.78-1.78-4.67-1.78-6.45,0-1.78,1.78-1.78,4.67,0,6.45l12.18,12.18H4.56c-2.52,0-4.56,2.04-4.56,4.56s2.04,4.56,4.56,4.56h26.72l-12.18,12.18c-1.78,1.78-1.78,4.67,0,6.45,1.78,1.78,4.67,1.78,6.45,0l19.96-19.96Z"/>
  </g>
</svg>