<?xml version="1.0" encoding="UTF-8"?>
<svg id="Layer_2" data-name="Layer 2" xmlns="http://www.w3.org/2000/svg" xmlns:xlink="http://www.w3.org/1999/xlink" viewBox="0 0 100.52 99.61">
  <defs>
    <style>
      .cls-1 {
        fill: url(#linear-gradient-8);
      }

      .cls-2 {
        fill: url(#linear-gradient-7);
      }

      .cls-3 {
        fill: url(#linear-gradient-5);
      }

      .cls-4 {
        fill: url(#linear-gradient-6);
      }

      .cls-5 {
        fill: url(#linear-gradient-9);
      }

      .cls-6 {
        fill: url(#linear-gradient-4);
      }

      .cls-7 {
        fill: url(#linear-gradient-3);
      }

      .cls-8 {
        fill: url(#linear-gradient-2);
      }

      .cls-9 {
        fill: url(#linear-gradient);
      }
    </style>
    <linearGradient id="linear-gradient" x1="20.46" y1="39.58" x2="100.52" y2="39.58" gradientUnits="userSpaceOnUse">
      <stop offset="0" stop-color="#36f2ed"/>
      <stop offset="1" stop-color="#0053df"/>
    </linearGradient>
    <linearGradient id="linear-gradient-2" x1="14.65" y1="63.58" x2="56" y2="63.58" xlink:href="#linear-gradient"/>
    <linearGradient id="linear-gradient-3" x1="0" y1="27.71" x2="51.43" y2="27.71" xlink:href="#linear-gradient"/>
    <linearGradient id="linear-gradient-4" x1="53.47" y1="74.39" x2="88.09" y2="74.39" xlink:href="#linear-gradient"/>
    <linearGradient id="linear-gradient-5" x1="47.65" y1="36.19" x2="79.61" y2="36.19" xlink:href="#linear-gradient"/>
    <linearGradient id="linear-gradient-6" x1="50.13" y1="36.19" x2="77.12" y2="36.19" xlink:href="#linear-gradient"/>
    <linearGradient id="linear-gradient-7" x1="8.01" y1="74.28" x2="40.44" y2="74.28" xlink:href="#linear-gradient"/>
    <linearGradient id="linear-gradient-8" x1="25.21" y1="54.38" x2="64.37" y2="54.38" xlink:href="#linear-gradient"/>
    <linearGradient id="linear-gradient-9" x1="69.71" y1="16.12" x2="99.11" y2="16.12" xlink:href="#linear-gradient"/>
  </defs>
  <g id="_ëÎÓÈ_1" data-name="ëÎÓÈ 1">
    <g>
      <path class="cls-9" d="M57.33,79.17c-.6,0-1.19-.24-1.63-.69L21.09,42.62c-.75-.77-.84-1.97-.23-2.85C32.84,22.43,46.52,10.64,62.67,3.73c5.78-2.47,12.38-3.73,19.6-3.73,6.24,0,11.33.97,12.84,1.44h0c.4.11,1.79.55,2.74,1.54.97,1,1.48,2.52,1.57,2.82h0c.71,2.35,3.32,18.23-3.39,32.5-7.47,15.9-19.73,29.15-37.49,40.52-.37.24-.8.36-1.22.36ZM25.63,40.82l32.03,33.17c16.18-10.67,27.41-22.99,34.29-37.63,6.36-13.54,3.32-28.56,3.17-29.21,0,0,0,0,0,0-.12-.37-.37-.89-.51-1.03-.1-.09-.46-.26-.72-.33-.04-.01-.09-.03-.14-.05-.73-.21-5.36-1.22-11.48-1.22-6.61,0-12.61,1.13-17.83,3.36-14.87,6.36-27.58,17.15-38.81,32.94Z"/>
      <path class="cls-8" d="M48.3,84.66c-.61,0-1.2-.25-1.62-.69L15.28,51.46c-.49-.5-.71-1.2-.61-1.9.1-.69.52-1.3,1.13-1.64l9.12-5.13c.9-.51,2.02-.34,2.73.4l27.71,28.7c.71.74.84,1.87.3,2.74l-5.45,8.94c-.36.6-.98.99-1.68,1.07-.08,0-.17.01-.25.01ZM20.56,50.43l27.32,28.3,3.02-4.95-25.29-26.19-5.05,2.84Z"/>
      <path class="cls-7" d="M3.05,44.22c-1.07,0-2.08-.56-2.63-1.52-.67-1.15-.52-2.58.37-3.57L24.12,13.2c.82-.91,1.98-1.44,3.2-1.47l21.79-.52c1.2-.03,2.28.96,2.31,2.2.03,1.25-.96,2.28-2.2,2.31l-21.79.52L7.17,38.78l12.16-2.62c.72-.16,1.47.05,2.01.55l2.9,2.69c.92.85.97,2.28.12,3.19-.85.91-2.28.97-3.19.12l-2.04-1.89-15.44,3.33c-.22.05-.43.07-.65.07Z"/>
      <path class="cls-6" d="M56.52,99.61c-.56,0-1.12-.15-1.62-.47-1.12-.7-1.66-2.04-1.34-3.33l3.87-15.32-1.82-2.11c-.81-.94-.71-2.37.24-3.19.95-.81,2.37-.71,3.19.24l2.58,3c.48.56.66,1.31.48,2.03l-3.05,12.06,23.26-19.5,1.26-21.71c.07-1.25,1.14-2.2,2.39-2.12,1.25.07,2.2,1.14,2.12,2.39l-1.29,21.76c-.07,1.22-.65,2.37-1.58,3.15l-26.73,22.41c-.56.47-1.26.71-1.96.71Z"/>
      <path class="cls-3" d="M63.63,52.18c-4.38,0-8.46-1.73-11.5-4.88-6.12-6.34-5.94-16.48.4-22.6,3-2.89,6.94-4.48,11.1-4.48,4.38,0,8.46,1.73,11.5,4.88,2.97,3.07,4.56,7.11,4.48,11.38-.08,4.27-1.81,8.25-4.88,11.22-3,2.89-6.94,4.48-11.1,4.48ZM63.62,24.73c-2.99,0-5.81,1.14-7.96,3.22-4.55,4.39-4.68,11.67-.29,16.21,2.18,2.26,5.11,3.5,8.25,3.5s5.81-1.14,7.96-3.22c2.2-2.13,3.45-4.99,3.5-8.05s-1.09-5.96-3.22-8.17c-2.18-2.26-5.11-3.5-8.25-3.5Z"/>
      <path class="cls-4" d="M63.62,49.69c-3.7,0-7.14-1.46-9.71-4.12-5.17-5.35-5.02-13.92.33-19.09,2.53-2.44,5.86-3.79,9.37-3.79,3.7,0,7.15,1.46,9.71,4.12,5.17,5.35,5.02,13.92-.33,19.09-2.53,2.44-5.86,3.79-9.38,3.79ZM63.62,27.21c-2.34,0-4.55.89-6.24,2.52-3.56,3.44-3.66,9.14-.22,12.7,1.71,1.77,4,2.74,6.46,2.74s4.55-.9,6.24-2.52c3.56-3.44,3.66-9.14.22-12.7-1.71-1.77-4-2.74-6.46-2.74Z"/>
      <path class="cls-2" d="M10.27,90.84c-.61,0-1.21-.25-1.64-.7-.65-.68-.8-1.69-.39-2.54l7.05-14.53-4.02-.11c-.76-.02-1.46-.42-1.86-1.07-.4-.65-.45-1.45-.13-2.14l4.96-10.71c.31-.68.94-1.15,1.67-1.28.73-.12,1.48.12,2,.66l21.9,22.68c.48.5.71,1.19.61,1.88-.09.69-.5,1.29-1.1,1.64l-10.13,5.91c-.72.42-1.61.41-2.32-.03-.71-.44-1.12-1.23-1.07-2.06l.24-4.05-14.89,6.27c-.28.12-.58.18-.88.18ZM28.5,78.64c.46,0,.92.14,1.3.41.64.45,1,1.2.95,1.98l-.2,3.47,4-2.33-17.61-18.24-2.13,4.61,4.09.11c.77.02,1.47.43,1.87,1.09.4.66.44,1.47.1,2.16l-5.96,12.28,12.71-5.35c.28-.12.58-.18.88-.18Z"/>
      <path class="cls-1" d="M62.11,74.57c-.59,0-1.18-.23-1.62-.69L25.85,38.01c-.87-.9-.84-2.33.06-3.19.9-.86,2.33-.84,3.19.06l34.64,35.88c.87.9.84,2.33-.06,3.19-.44.42-1,.63-1.57.63Z"/>
      <path class="cls-5" d="M96.85,31.27c-.29,0-.58-.06-.87-.17-12.02-5.01-21.55-14.87-26.13-27.06-.44-1.17.15-2.47,1.32-2.91,1.17-.44,2.47.15,2.91,1.32,4.14,11.03,12.76,19.95,23.63,24.48,1.15.48,1.7,1.8,1.22,2.95-.36.87-1.2,1.39-2.09,1.39Z"/>
    </g>
  </g>
</svg>