<?xml version="1.0" encoding="UTF-8"?>
<svg id="Layer_2" data-name="Layer 2" xmlns="http://www.w3.org/2000/svg" viewBox="0 0 114.72 90.14">
  <defs>
    <style>
      .cls-1 {
        fill: #2ab6f4;
      }
    </style>
  </defs>
  <g id="_ëÎÓÈ_1" data-name="ëÎÓÈ 1">
    <path class="cls-1" d="M110.25,50.32l.05-.12c2.43-5.56,3.4-11.71,2.82-17.79C111.21,12.73,93.65-1.75,73.96.17c-11.3,1.09-21.37,7.47-27.23,17.15-2.97-.95-6.12-1.53-9.38-1.66C17.41,14.82.85,30.23.03,50.01c-.25,6.1,1.06,12.19,3.77,17.57l.09.18-2.88,19.8c-.11.75.17,1.51.74,2.02.42.37.95.57,1.5.57.2,0,.4-.03.59-.08l18.98-5.15c3.69,1.44,7.58,2.25,11.57,2.42,13.63.57,25.68-6.45,32.2-17.27,4.61,1.47,9.41,1.98,14.28,1.51,3.98-.38,7.83-1.41,11.44-3.06l19.74,3.64c.14.03.27.04.41.04.61,0,1.2-.25,1.63-.7.53-.55.74-1.33.57-2.07l-4.41-19.1ZM35.89,82.84h0c-.44,0-.88,0-1.32-.03-3.67-.15-7.24-.93-10.61-2.31-.3-.12-.62-.19-.94-.17l-.44.02c-.17,0-.34.03-.51.08l-16.1,4.37,2.49-17.07c.06-.45,0-.9-.2-1.3l-.41-.84c-2.39-4.73-3.53-10.05-3.31-15.39.7-16.85,14.45-30.05,31.3-30.05.44,0,.88,0,1.32.03,17.27.71,30.74,15.35,30.03,32.62-.7,16.85-14.45,30.05-31.3,30.05ZM92.71,63.99c-.15-.03-.3-.03-.44-.04h-.44c-.32.01-.64.09-.94.23-3.29,1.56-6.81,2.54-10.46,2.89-4,.39-7.94.02-11.74-1.09,1.76-4,2.82-8.38,3.01-13.01.62-14.88-7.98-28.05-20.7-34,5.18-8.08,13.78-13.39,23.39-14.32,17.21-1.67,32.56,10.98,34.22,28.19.51,5.31-.34,10.69-2.48,15.58l-.34.82c-.18.43-.22.92-.12,1.37l3.8,16.45-16.77-3.09Z"/>
    <circle class="cls-1" cx="49.72" cy="51.97" r="4.34"/>
    <circle class="cls-1" cx="35.28" cy="51.97" r="4.34"/>
    <circle class="cls-1" cx="20.85" cy="51.97" r="4.34"/>
    <path class="cls-1" d="M89.95,31.01c-2.4,0-4.34,1.94-4.34,4.34s1.94,4.34,4.34,4.34,4.34-1.94,4.34-4.34-1.94-4.34-4.34-4.34Z"/>
    <path class="cls-1" d="M75.52,31.01c-2.4,0-4.34,1.94-4.34,4.34s1.94,4.34,4.34,4.34,4.34-1.94,4.34-4.34-1.94-4.34-4.34-4.34Z"/>
  </g>
</svg>