<?xml version="1.0" encoding="UTF-8"?>
<svg id="Layer_2" data-name="Layer 2" xmlns="http://www.w3.org/2000/svg" viewBox="0 0 82.6 88.38">
  <defs>
    <style>
      .cls-1 {
        fill: #2ab6f4;
      }
    </style>
  </defs>
  <g id="_ëÎÓÈ_1" data-name="ëÎÓÈ 1">
    <g>
      <path class="cls-1" d="M80.34,0H6.41c-1.25,0-2.26,1.01-2.26,2.26v3.6H1.93c-1.06,0-1.93.86-1.93,1.93s.86,1.93,1.93,1.93h2.23v4.25H1.93c-1.06,0-1.93.86-1.93,1.93s.86,1.93,1.93,1.93h2.23v4.25H1.93c-1.06,0-1.93.86-1.93,1.93s.86,1.93,1.93,1.93h2.23v4.25H1.93c-1.06,0-1.93.86-1.93,1.93s.86,1.93,1.93,1.93h2.23v4.25H1.93c-1.06,0-1.93.86-1.93,1.93s.86,1.93,1.93,1.93h2.23v4.25H1.93c-1.06,0-1.93.86-1.93,1.93s.86,1.93,1.93,1.93h2.23v4.25H1.93c-1.06,0-1.93.86-1.93,1.93s.86,1.93,1.93,1.93h2.23v4.25H1.93c-1.06,0-1.93.86-1.93,1.93s.86,1.93,1.93,1.93h2.23v4.25H1.93c-1.06,0-1.93.86-1.93,1.93s.86,1.93,1.93,1.93h2.23v4.11H1.93c-1.06,0-1.93.86-1.93,1.93s.86,1.93,1.93,1.93h2.23v3.6c0,1.25,1.01,2.26,2.26,2.26h73.92c1.25,0,2.26-1.01,2.26-2.26V2.26c0-1.25-1.01-2.26-2.26-2.26ZM78.08,83.86H8.67v-1.34h2.23c1.06,0,1.93-.86,1.93-1.93s-.86-1.93-1.93-1.93h-2.23v-4.11h2.23c1.06,0,1.93-.86,1.93-1.93s-.86-1.93-1.93-1.93h-2.23v-4.25h2.23c1.06,0,1.93-.86,1.93-1.93s-.86-1.93-1.93-1.93h-2.23v-4.25h2.23c1.06,0,1.93-.86,1.93-1.93s-.86-1.93-1.93-1.93h-2.23v-4.25h2.23c1.06,0,1.93-.86,1.93-1.93s-.86-1.93-1.93-1.93h-2.23v-4.25h2.23c1.06,0,1.93-.86,1.93-1.93s-.86-1.93-1.93-1.93h-2.23v-4.25h2.23c1.06,0,1.93-.86,1.93-1.93s-.86-1.93-1.93-1.93h-2.23v-4.25h2.23c1.06,0,1.93-.86,1.93-1.93s-.86-1.93-1.93-1.93h-2.23v-4.25h2.23c1.06,0,1.93-.86,1.93-1.93s-.86-1.93-1.93-1.93h-2.23v-4.25h2.23c1.06,0,1.93-.86,1.93-1.93s-.86-1.93-1.93-1.93h-2.23v-1.34h69.41v79.34Z"/>
      <path class="cls-1" d="M18.17,28.25h51.31c1.25,0,2.26-1.01,2.26-2.26v-9.93c0-1.25-1.01-2.26-2.26-2.26H18.17c-1.25,0-2.26,1.01-2.26,2.26v9.93c0,1.25,1.01,2.26,2.26,2.26ZM20.43,18.33h46.79v5.41H20.43v-5.41Z"/>
    </g>
  </g>
</svg>