<?xml version="1.0" encoding="UTF-8"?>
<svg id="Layer_2" data-name="Layer 2" xmlns="http://www.w3.org/2000/svg" viewBox="0 0 111.58 122.07">
  <defs>
    <style>
      .cls-1 {
        fill: #2ab6f4;
      }
    </style>
  </defs>
  <g id="_ëÎÓÈ_1" data-name="ëÎÓÈ 1">
    <g>
      <path class="cls-1" d="M98.75,91.88h-32.14c-1.09,0-2.02-.78-2.22-1.85-.6-3.23-2.54-5.66-5.33-6.65-1.03-.37-1.65-1.43-1.47-2.51.19-1.08,1.13-1.87,2.23-1.87h36.7c.5,0,.98.16,1.37.46,4.6,3.52,3.45,8.87,3.07,10.64-.22,1.04-1.14,1.79-2.21,1.79ZM68.36,87.36h28.45c.15-2.02-.39-3.1-1.13-3.85h-29.27c.83,1.14,1.49,2.44,1.95,3.85Z"/>
      <path class="cls-1" d="M44.93,91.88H12.84c-1.06,0-1.97-.73-2.2-1.76-1-4.41,0-7.97,2.95-10.56.41-.36.94-.56,1.49-.56h36.65c1.1,0,2.04.79,2.23,1.87.19,1.08-.43,2.14-1.47,2.51-2.79,1-4.73,3.42-5.33,6.65-.2,1.07-1.13,1.85-2.22,1.85ZM14.78,87.36h28.39c.46-1.41,1.12-2.71,1.95-3.85H16c-.9,1.04-1.3,2.28-1.22,3.85Z"/>
      <path class="cls-1" d="M49.01,103.6H17c-.81,0-1.55-.43-1.96-1.13-2.77-4.8-2.16-9.18-1.37-12.91.22-1.04,1.14-1.79,2.21-1.79h28.97c.66,0,1.28.29,1.71.79.43.5.62,1.16.52,1.81-.55,3.64.74,7.24,3.29,9.17.77.59,1.09,1.6.78,2.52-.31.92-1.17,1.54-2.14,1.54ZM18.38,99.08h25.82c-1.1-2.02-1.71-4.37-1.76-6.8h-24.69c-.35,2.22-.39,4.45.63,6.8Z"/>
      <path class="cls-1" d="M94.73,103.6h-32.21c-.97,0-1.83-.62-2.14-1.54-.31-.92,0-1.93.78-2.52,2.55-1.94,3.85-5.54,3.29-9.17-.1-.65.09-1.31.52-1.81.43-.5,1.06-.79,1.71-.79h29.17c1.08,0,2.01.77,2.22,1.83.67,3.45,1.13,8.01-1.33,12.78-.39.75-1.16,1.22-2.01,1.22ZM67.33,99.08h25.95c.77-2,.98-4.15.65-6.8h-24.84c-.04,2.43-.66,4.77-1.76,6.8Z"/>
      <path class="cls-1" d="M55.79,41.39c-.25,0-.5-.04-.74-.12L1.52,22.83c-.91-.31-1.52-1.17-1.52-2.14s.61-1.82,1.52-2.14L55.06.12c.48-.16.99-.16,1.47,0l53.53,18.43c.91.31,1.52,1.17,1.52,2.14s-.61,1.82-1.52,2.14l-53.53,18.43c-.24.08-.49.12-.74.12ZM9.2,20.69l46.59,16.05,46.59-16.05L55.79,4.65,9.2,20.69Z"/>
      <g>
        <path class="cls-1" d="M28.76,48.18c-1.3,0-2.35-1.05-2.35-2.35v-14.28c0-1.3,1.05-2.35,2.35-2.35s2.35,1.05,2.35,2.35v14.28c0,1.3-1.05,2.35-2.35,2.35Z"/>
        <path class="cls-1" d="M82.83,48.18c-1.3,0-2.35-1.05-2.35-2.35v-14.28c0-1.3,1.05-2.35,2.35-2.35s2.35,1.05,2.35,2.35v14.28c0,1.3-1.05,2.35-2.35,2.35Z"/>
      </g>
      <path class="cls-1" d="M55.79,65.44c-16.45,0-29.34-8.43-29.34-19.2,0-1.3,1.05-2.35,2.35-2.35s2.35,1.05,2.35,2.35c0,7.86,11.28,14.49,24.64,14.49s24.64-6.64,24.64-14.49c0-1.3,1.05-2.35,2.35-2.35s2.35,1.05,2.35,2.35c0,10.76-12.89,19.2-29.34,19.2Z"/>
      <path class="cls-1" d="M60.74,18.46c0,2.73-2.22,4.95-4.95,4.95s-4.95-2.22-4.95-4.95,2.22-4.95,4.95-4.95,4.95,2.22,4.95,4.95Z"/>
      <path class="cls-1" d="M21.19,55.92c-1.25,0-2.26-1.01-2.26-2.26v-26.85c0-1.04.71-1.95,1.73-2.2l34.6-8.36c1.21-.29,2.43.45,2.73,1.67.29,1.21-.45,2.43-1.67,2.73l-32.87,7.94v25.07c0,1.25-1.01,2.26-2.26,2.26Z"/>
      <path class="cls-1" d="M25.65,57.34h-8.93c-.88,0-1.6-.72-1.6-1.6s.72-1.6,1.6-1.6h8.93c.88,0,1.6.72,1.6,1.6s-.72,1.6-1.6,1.6Z"/>
      <path class="cls-1" d="M21.19,72.37c-.42,0-.82-.16-1.12-.45-.17-.16-4.08-4.04-4.08-10.37,0-2.86,2.33-5.19,5.19-5.19s5.19,2.33,5.19,5.19c0,5.81-3.84,10.11-4.01,10.29-.29.32-.7.51-1.13.52-.02,0-.03,0-.05,0ZM21.19,59.56c-1.1,0-1.99.89-1.99,1.99,0,2.9,1.06,5.17,1.95,6.56.91-1.47,2.04-3.84,2.04-6.56,0-1.1-.89-1.99-1.99-1.99Z"/>
      <path class="cls-1" d="M60.19,122.07c-.73,0-1.43-.36-1.86-.98l-2.52-3.68-2.52,3.68c-.56.82-1.58,1.17-2.53.88-.95-.29-1.59-1.17-1.59-2.16v-17.18c0-.76.39-1.48,1.03-1.89.64-.42,1.45-.48,2.15-.17,1.01.45,2.17.68,3.43.68s2.46-.24,3.49-.7c.7-.32,1.51-.26,2.16.16.65.42,1.04,1.13,1.04,1.9v17.21c0,.99-.64,1.86-1.59,2.16-.22.07-.45.1-.67.1ZM55.8,111.15c.75,0,1.44.37,1.86.98l.26.39v-6.92c-1.37.21-2.88.22-4.25.01v6.91l.26-.38c.42-.61,1.12-.98,1.86-.98Z"/>
      <path class="cls-1" d="M60.19,84.28c-.32,0-.64-.07-.94-.2-1.02-.47-2.2-.7-3.49-.7s-2.42.23-3.43.68c-.7.31-1.51.25-2.15-.17-.64-.42-1.03-1.13-1.03-1.89v-7.18c0-1.25,1.01-2.26,2.26-2.26h8.77c1.25,0,2.26,1.01,2.26,2.26v7.21c0,.77-.39,1.48-1.04,1.9-.37.24-.8.36-1.22.36ZM55.77,78.85c.74,0,1.46.05,2.16.16v-1.95h-4.25v1.94c.68-.1,1.37-.15,2.09-.15Z"/>
      <path class="cls-1" d="M55.8,105.67c-7.33,0-13.29-5.96-13.29-13.29s5.96-13.29,13.29-13.29,13.29,5.96,13.29,13.29-5.96,13.29-13.29,13.29ZM55.8,83.61c-4.84,0-8.77,3.93-8.77,8.77s3.93,8.77,8.77,8.77,8.77-3.93,8.77-8.77-3.93-8.77-8.77-8.77Z"/>
    </g>
  </g>
</svg>