<?xml version="1.0" encoding="UTF-8"?>
<svg id="Layer_2" data-name="Layer 2" xmlns="http://www.w3.org/2000/svg" viewBox="0 0 81.27 93.43">
  <defs>
    <style>
      .cls-1 {
        fill: #2ab6f4;
      }
    </style>
  </defs>
  <g id="_ëÎÓÈ_1" data-name="ëÎÓÈ 1">
    <g>
      <path class="cls-1" d="M76.63,93.43H4.65c-2.56,0-4.65-2.08-4.65-4.65V4.65C0,2.08,2.08,0,4.65,0h71.98c2.56,0,4.65,2.08,4.65,4.65v84.13c0,2.56-2.08,4.65-4.65,4.65ZM4.65,4.52c-.07,0-.13.06-.13.13v84.13c0,.07.06.13.13.13h71.98c.07,0,.13-.06.13-.13V4.65c0-.07-.06-.13-.13-.13H4.65Z"/>
      <path class="cls-1" d="M73.05,19.86h-13.84c-1.25,0-2.26-1.01-2.26-2.26s1.01-2.26,2.26-2.26h13.84c1.25,0,2.26,1.01,2.26,2.26s-1.01,2.26-2.26,2.26Z"/>
      <path class="cls-1" d="M73.05,13.78h-13.84c-1.25,0-2.26-1.01-2.26-2.26s1.01-2.26,2.26-2.26h13.84c1.25,0,2.26,1.01,2.26,2.26s-1.01,2.26-2.26,2.26Z"/>
      <path class="cls-1" d="M66.13,86.24c-4.44,0-8.06-3.62-8.06-8.06s3.62-8.06,8.06-8.06,8.06,3.62,8.06,8.06-3.62,8.06-8.06,8.06ZM66.13,74.64c-1.95,0-3.54,1.59-3.54,3.54s1.59,3.54,3.54,3.54,3.54-1.59,3.54-3.54-1.59-3.54-3.54-3.54Z"/>
      <path class="cls-1" d="M47.53,19.86h-13.84c-1.25,0-2.26-1.01-2.26-2.26s1.01-2.26,2.26-2.26h13.84c1.25,0,2.26,1.01,2.26,2.26s-1.01,2.26-2.26,2.26Z"/>
      <path class="cls-1" d="M47.53,13.78h-13.84c-1.25,0-2.26-1.01-2.26-2.26s1.01-2.26,2.26-2.26h13.84c1.25,0,2.26,1.01,2.26,2.26s-1.01,2.26-2.26,2.26Z"/>
      <path class="cls-1" d="M40.62,86.24c-4.44,0-8.06-3.62-8.06-8.06s3.62-8.06,8.06-8.06,8.06,3.62,8.06,8.06-3.62,8.06-8.06,8.06ZM40.62,74.64c-1.95,0-3.54,1.59-3.54,3.54s1.59,3.54,3.54,3.54,3.54-1.59,3.54-3.54-1.59-3.54-3.54-3.54Z"/>
      <path class="cls-1" d="M22.02,19.86h-13.84c-1.25,0-2.26-1.01-2.26-2.26s1.01-2.26,2.26-2.26h13.84c1.25,0,2.26,1.01,2.26,2.26s-1.01,2.26-2.26,2.26Z"/>
      <path class="cls-1" d="M22.02,13.78h-13.84c-1.25,0-2.26-1.01-2.26-2.26s1.01-2.26,2.26-2.26h13.84c1.25,0,2.26,1.01,2.26,2.26s-1.01,2.26-2.26,2.26Z"/>
      <path class="cls-1" d="M15.1,86.24c-4.44,0-8.06-3.62-8.06-8.06s3.62-8.06,8.06-8.06,8.06,3.62,8.06,8.06-3.62,8.06-8.06,8.06ZM15.1,74.64c-1.95,0-3.54,1.59-3.54,3.54s1.59,3.54,3.54,3.54,3.54-1.59,3.54-3.54-1.59-3.54-3.54-3.54Z"/>
      <path class="cls-1" d="M27.84,93.43c-1.25,0-2.26-1.01-2.26-2.26V2.26c0-1.25,1.01-2.26,2.26-2.26s2.26,1.01,2.26,2.26v88.91c0,1.25-1.01,2.26-2.26,2.26Z"/>
      <path class="cls-1" d="M53,93.43c-1.25,0-2.26-1.01-2.26-2.26V2.26c0-1.25,1.01-2.26,2.26-2.26s2.26,1.01,2.26,2.26v88.91c0,1.25-1.01,2.26-2.26,2.26Z"/>
    </g>
  </g>
</svg>