<?xml version="1.0" encoding="UTF-8"?>
<svg id="Layer_2" data-name="Layer 2" xmlns="http://www.w3.org/2000/svg" xmlns:xlink="http://www.w3.org/1999/xlink" viewBox="0 0 71.89 91.83">
  <defs>
    <style>
      .cls-1 {
        fill: url(#linear-gradient-3);
      }

      .cls-2 {
        fill: url(#linear-gradient-2);
      }

      .cls-3 {
        fill: url(#linear-gradient);
      }

      .cls-4 {
        fill: #2ab6f4;
      }
    </style>
    <linearGradient id="linear-gradient" x1="9.69" y1="37.08" x2="24.75" y2="37.08" gradientUnits="userSpaceOnUse">
      <stop offset="0" stop-color="#36f2ed"/>
      <stop offset="1" stop-color="#0053df"/>
    </linearGradient>
    <linearGradient id="linear-gradient-2" y1="57.08" y2="57.08" xlink:href="#linear-gradient"/>
    <linearGradient id="linear-gradient-3" y1="75.58" y2="75.58" xlink:href="#linear-gradient"/>
  </defs>
  <g id="_ëÎÓÈ_1" data-name="ëÎÓÈ 1">
    <g>
      <path class="cls-4" d="M69.27,91.83H5.18c-2.86,0-5.18-2.32-5.18-5.18V5.18C0,2.32,2.32,0,5.18,0h48.28c.6,0,1.17.24,1.6.66l16.17,16.18c.42.42.66,1,.66,1.6v69.11c0,1.25-1.01,2.26-2.26,2.26s-2.26-1.01-2.26-2.26V19.37l-14.85-14.85H5.18c-.36,0-.66.3-.66.66v81.47c0,.36.3.66.66.66h66.71v2.26c0,1.25-1.37,2.26-2.62,2.26Z"/>
      <path class="cls-4" d="M69.63,20.69h-13.25c-2.86,0-5.18-2.32-5.18-5.18V2.26c0-.91.55-1.74,1.39-2.09.85-.35,1.82-.16,2.46.49l16.17,16.18c.65.65.84,1.62.49,2.46-.35.84-1.17,1.39-2.09,1.39ZM55.72,7.71v7.8c0,.36.3.66.66.66h7.8l-8.46-8.46Z"/>
      <path class="cls-4" d="M60.29,37.18h-31.66c-.83,0-1.5-1.01-1.5-2.26s.67-2.26,1.5-2.26h31.66c.83,0,1.5,1.01,1.5,2.26s-.67,2.26-1.5,2.26Z"/>
      <path class="cls-4" d="M60.29,43.53h-31.66c-.83,0-1.5-1.01-1.5-2.26s.67-2.26,1.5-2.26h31.66c.83,0,1.5,1.01,1.5,2.26s-.67,2.26-1.5,2.26Z"/>
      <path class="cls-4" d="M60.29,57.18h-31.66c-.83,0-1.5-1.01-1.5-2.26s.67-2.26,1.5-2.26h31.66c.83,0,1.5,1.01,1.5,2.26s-.67,2.26-1.5,2.26Z"/>
      <path class="cls-4" d="M60.29,63.53h-31.66c-.83,0-1.5-1.01-1.5-2.26s.67-2.26,1.5-2.26h31.66c.83,0,1.5,1.01,1.5,2.26s-.67,2.26-1.5,2.26Z"/>
      <path class="cls-4" d="M60.29,75.58h-31.66c-.83,0-1.5-1.01-1.5-2.26s.67-2.26,1.5-2.26h31.66c.83,0,1.5,1.01,1.5,2.26s-.67,2.26-1.5,2.26Z"/>
      <path class="cls-4" d="M60.29,82.08h-31.66c-.83,0-1.5-1.01-1.5-2.26s.67-2.26,1.5-2.26h31.66c.83,0,1.5,1.01,1.5,2.26s-.67,2.26-1.5,2.26Z"/>
      <path class="cls-4" d="M38.29,23.54H12.59c-1.25,0-2.26-1.01-2.26-2.26s1.01-2.26,2.26-2.26h25.7c1.25,0,2.26,1.01,2.26,2.26s-1.01,2.26-2.26,2.26Z"/>
      <path class="cls-3" d="M22.49,44.61h-10.54c-1.25,0-2.26-1.01-2.26-2.26v-10.54c0-1.25,1.01-2.26,2.26-2.26h10.54c1.25,0,2.26,1.01,2.26,2.26v10.54c0,1.25-1.01,2.26-2.26,2.26ZM14.21,40.09h6.02v-6.02h-6.02v6.02Z"/>
      <path class="cls-2" d="M22.49,64.61h-10.54c-1.25,0-2.26-1.01-2.26-2.26v-10.54c0-1.25,1.01-2.26,2.26-2.26h10.54c1.25,0,2.26,1.01,2.26,2.26v10.54c0,1.25-1.01,2.26-2.26,2.26ZM14.21,60.09h6.02v-6.02h-6.02v6.02Z"/>
      <path class="cls-1" d="M22.49,83.11h-10.54c-1.25,0-2.26-1.01-2.26-2.26v-10.54c0-1.25,1.01-2.26,2.26-2.26h10.54c1.25,0,2.26,1.01,2.26,2.26v10.54c0,1.25-1.01,2.26-2.26,2.26ZM14.21,78.59h6.02v-6.02h-6.02v6.02Z"/>
    </g>
  </g>
</svg>