<?xml version="1.0" encoding="UTF-8"?>
<svg id="Layer_2" data-name="Layer 2" xmlns="http://www.w3.org/2000/svg" xmlns:xlink="http://www.w3.org/1999/xlink" viewBox="0 0 115.16 115.16">
  <defs>
    <style>
      .cls-1 {
        fill: url(#linear-gradient-3);
      }

      .cls-2 {
        fill: url(#linear-gradient-2);
      }

      .cls-3 {
        fill: url(#linear-gradient);
      }
    </style>
    <linearGradient id="linear-gradient" x1="0" y1="57.58" x2="115.16" y2="57.58" gradientUnits="userSpaceOnUse">
      <stop offset="0" stop-color="#36f2ed"/>
      <stop offset="1" stop-color="#0053df"/>
    </linearGradient>
    <linearGradient id="linear-gradient-2" x1="53.06" y1="39.9" x2="81.16" y2="39.9" xlink:href="#linear-gradient"/>
    <linearGradient id="linear-gradient-3" x1="-277.85" y1="1171.19" x2="-201.02" y2="1171.19" gradientTransform="translate(1113.118 -467.8977) rotate(52.0812)" xlink:href="#linear-gradient"/>
  </defs>
  <g id="_ëÎÓÈ_1" data-name="ëÎÓÈ 1">
    <g>
      <path class="cls-3" d="M57.58,115.16C25.83,115.16,0,89.33,0,57.58S25.83,0,57.58,0s57.58,25.83,57.58,57.58-25.83,57.58-57.58,57.58ZM57.58,9.04c-26.76,0-48.54,21.77-48.54,48.54s21.77,48.54,48.54,48.54,48.54-21.77,48.54-48.54S84.35,9.04,57.58,9.04Z"/>
      <path class="cls-2" d="M57.58,62.1c-.58,0-1.17-.11-1.73-.34-1.69-.7-2.79-2.35-2.79-4.18V22.23c0-2.5,2.02-4.52,4.52-4.52s4.52,2.02,4.52,4.52v24.44l11.34-11.34c1.77-1.77,4.63-1.77,6.4,0,1.77,1.77,1.77,4.63,0,6.4l-19.06,19.06c-.87.87-2.02,1.32-3.2,1.32Z"/>
    </g>
    <path class="cls-1" d="M44.44,59.08l-8.41-10.79c-.43-.55-1.09-.86-1.78-.83-.69.03-1.33.38-1.72.96-6.28,9.38-5.84,21.67,1.1,30.58,6.7,8.6,17.85,12.09,28.17,8.96l4.03,5.17c-13.11,5.03-28.34.92-37.09-10.32-9.23-11.85-9-28.85.55-40.43.65-.78.66-1.91.04-2.7l-7.52-9.65,25.84,3.21-3.21,25.84Z"/>
  </g>
</svg>