<?xml version="1.0" encoding="UTF-8"?>
<svg id="Layer_2" data-name="Layer 2" xmlns="http://www.w3.org/2000/svg" xmlns:xlink="http://www.w3.org/1999/xlink" viewBox="0 0 130.09 126.7">
  <defs>
    <style>
      .cls-1 {
        fill: url(#linear-gradient);
      }
    </style>
    <linearGradient id="linear-gradient" x1="0" y1="63.35" x2="130.09" y2="63.35" gradientUnits="userSpaceOnUse">
      <stop offset="0" stop-color="#36f2ed"/>
      <stop offset="1" stop-color="#0053df"/>
    </linearGradient>
  </defs>
  <g id="_ëÎÓÈ_1" data-name="ëÎÓÈ 1">
    <path class="cls-1" d="M51.19,126.7c28.23,0,51.19-22.96,51.19-51.19,0-13.34-5.14-25.5-13.53-34.62l9.63-9.63c.34.48.87.82,1.51.9l20.17,2.22c.08,0,.16.01.23.01,1.08,0,2.01-.81,2.14-1.91.13-1.18-.72-2.24-1.9-2.37l-18.91-2.08,5.54-5.54c.09.02.18.05.28.06l20.17,2.22c.08,0,.16.01.23.01,1.08,0,2.01-.81,2.13-1.91.13-1.18-.72-2.24-1.9-2.37l-17.04-1.87,10.35-10.35c.84-.84.84-2.2,0-3.04-.84-.84-2.2-.84-3.04,0l-10.61,10.61-5.6-14.45c-.43-1.11-1.67-1.65-2.78-1.23-1.11.43-1.66,1.67-1.23,2.78l6.21,16.04c.02.06.06.1.09.16l-4.57,4.57-5.61-14.95c-.42-1.11-1.66-1.67-2.77-1.26-1.11.42-1.67,1.66-1.26,2.77l6.21,16.54c.03.08.08.14.11.21l-10.84,10.84c-9.12-8.39-21.28-13.53-34.63-13.53C22.96,24.31,0,47.28,0,75.51s22.96,51.19,51.19,51.19ZM51.19,28.61c12.16,0,23.25,4.65,31.59,12.27l-10.13,10.13c-5.74-5.03-13.24-8.09-21.46-8.09-17.97,0-32.59,14.62-32.59,32.58s14.62,32.59,32.59,32.59,32.58-14.62,32.58-32.59c0-8.21-3.06-15.72-8.09-21.46l10.13-10.13c7.61,8.34,12.27,19.43,12.27,31.59,0,25.86-21.04,46.9-46.9,46.9S4.29,101.36,4.29,75.51,25.33,28.61,51.19,28.61ZM49.67,77.02c.42.42.97.63,1.52.63s1.1-.21,1.52-.63l6.61-6.61c.93,1.48,1.48,3.22,1.48,5.1,0,5.3-4.31,9.61-9.61,9.61s-9.61-4.31-9.61-9.61,4.31-9.61,9.61-9.61c1.87,0,3.62.55,5.1,1.48l-6.61,6.61c-.84.84-.84,2.2,0,3.04ZM59.37,64.29c-2.3-1.68-5.12-2.69-8.18-2.69-7.67,0-13.9,6.24-13.9,13.9s6.24,13.9,13.9,13.9,13.91-6.24,13.91-13.9c0-3.06-1.01-5.88-2.69-8.18l10.23-10.23c4.26,4.95,6.84,11.38,6.84,18.41,0,15.6-12.69,28.29-28.29,28.29s-28.29-12.69-28.29-28.29,12.69-28.29,28.29-28.29c7.03,0,13.46,2.58,18.41,6.84l-10.24,10.23Z"/>
  </g>
</svg>