<?xml version="1.0" encoding="UTF-8"?>
<svg id="Layer_2" data-name="Layer 2" xmlns="http://www.w3.org/2000/svg" xmlns:xlink="http://www.w3.org/1999/xlink" viewBox="0 0 92.81 94.24">
  <defs>
    <style>
      .cls-1 {
        fill: url(#linear-gradient-8);
      }

      .cls-2 {
        fill: url(#linear-gradient-7);
      }

      .cls-3 {
        fill: url(#linear-gradient-5);
      }

      .cls-4 {
        fill: url(#linear-gradient-6);
      }

      .cls-5 {
        fill: url(#linear-gradient-9);
      }

      .cls-6 {
        fill: url(#linear-gradient-4);
      }

      .cls-7 {
        fill: url(#linear-gradient-3);
      }

      .cls-8 {
        fill: url(#linear-gradient-2);
      }

      .cls-9 {
        fill: url(#linear-gradient);
      }

      .cls-10 {
        fill: url(#linear-gradient-10);
      }
    </style>
    <linearGradient id="linear-gradient" x1="4.07" y1="57.86" x2="88.71" y2="57.86" gradientUnits="userSpaceOnUse">
      <stop offset="0" stop-color="#36f2ed"/>
      <stop offset="1" stop-color="#0053df"/>
    </linearGradient>
    <linearGradient id="linear-gradient-2" x1="0" y1="15.42" x2="92.81" y2="15.42" xlink:href="#linear-gradient"/>
    <linearGradient id="linear-gradient-3" x1="4.07" y1="80.26" x2="88.69" y2="80.26" xlink:href="#linear-gradient"/>
    <linearGradient id="linear-gradient-4" x1="27.28" y1="45.2" x2="44.38" y2="45.2" xlink:href="#linear-gradient"/>
    <linearGradient id="linear-gradient-5" x1="47.23" y1="47.66" x2="69.25" y2="47.66" xlink:href="#linear-gradient"/>
    <linearGradient id="linear-gradient-6" x1="25.33" y1="80.4" x2="38.11" y2="80.4" xlink:href="#linear-gradient"/>
    <linearGradient id="linear-gradient-7" x1="40.45" y1="80.4" x2="52.71" y2="80.4" xlink:href="#linear-gradient"/>
    <linearGradient id="linear-gradient-8" x1="55.06" y1="80.4" x2="65.99" y2="80.4" xlink:href="#linear-gradient"/>
    <linearGradient id="linear-gradient-9" x1="15.07" y1="7.3" x2="21.54" y2="7.3" xlink:href="#linear-gradient"/>
    <linearGradient id="linear-gradient-10" x1="71.27" y1="7.3" x2="77.75" y2="7.3" xlink:href="#linear-gradient"/>
  </defs>
  <g id="_ëÎÓÈ_1" data-name="ëÎÓÈ 1">
    <g>
      <path class="cls-9" d="M86.42,94.24h0l-80.09-.03c-.6,0-1.17-.24-1.6-.66-.42-.42-.66-1-.66-1.6l.03-68.21c0-1.25,1.01-2.26,2.26-2.26h0l80.09.03c.6,0,1.17.24,1.6.66.42.42.66,1,.66,1.6l-.03,68.21c0,1.25-1.01,2.26-2.26,2.26ZM8.59,89.69l75.57.03.03-63.69-75.57-.03-.03,63.69Z"/>
      <path class="cls-8" d="M90.55,26.04h0l-88.29-.04c-.6,0-1.17-.24-1.6-.66-.42-.42-.66-1-.66-1.6V7.06c0-1.25,1.02-2.26,2.27-2.26h0l88.29.03c1.25,0,2.26,1.01,2.26,2.26v16.69c0,.6-.24,1.17-.67,1.6-.42.42-1,.66-1.6.66ZM4.52,21.49l83.77.03v-12.17s-83.77-.03-83.77-.03v12.17Z"/>
      <path class="cls-7" d="M86.42,94.24h0l-80.09-.03c-1.25,0-2.26-1.01-2.26-2.26v-23.41c0-.6.25-1.17.67-1.6s1-.66,1.6-.66h0l80.09.03c1.25,0,2.26,1.01,2.26,2.26v23.41c0,.6-.25,1.17-.67,1.6-.42.42-1,.66-1.6.66ZM8.59,89.69l75.57.03v-18.89s-75.56-.03-75.56-.03v18.89Z"/>
      <g>
        <path class="cls-6" d="M44.38,53.18v4.23h-16.24v-4.23h6.04v-14.93c-.26.34-.65.7-1.19,1.07-.54.37-1.13.71-1.79,1.03-.65.31-1.33.58-2.04.79-.71.21-1.33.32-1.87.32v-4.41c.57,0,1.23-.17,1.98-.51.75-.34,1.47-.74,2.17-1.2.69-.46,1.3-.91,1.83-1.37.52-.46.83-.78.91-.98h4.8v20.19h5.4Z"/>
        <path class="cls-3" d="M61.85,36.8h-14.63v-4.32h22.03l-15.09,30.37h-5.32l13.01-26.05Z"/>
      </g>
      <g>
        <path class="cls-4" d="M36.07,86.83v-9.25l-3.8,7.01h-1.12l-3.82-7.01v9.25h-2.02v-12.86h2.16l4.23,7.86,4.23-7.86h2.16v12.86h-2.03Z"/>
        <path class="cls-2" d="M46.57,86.92c-.91,0-1.74-.18-2.49-.55-.75-.37-1.4-.86-1.94-1.47-.54-.61-.96-1.31-1.25-2.09-.29-.79-.44-1.59-.44-2.41s.16-1.68.47-2.46c.31-.78.74-1.48,1.29-2.08.55-.6,1.19-1.08,1.94-1.44.75-.36,1.57-.53,2.46-.53s1.74.19,2.49.57c.75.38,1.39.88,1.93,1.49.53.62.95,1.31,1.24,2.09.3.78.44,1.57.44,2.38,0,.86-.15,1.68-.46,2.46-.31.79-.74,1.48-1.29,2.07-.55.6-1.2,1.07-1.95,1.43-.75.36-1.56.53-2.44.53ZM42.5,80.4c0,.6.1,1.19.29,1.76.19.57.46,1.07.82,1.5s.78.78,1.29,1.04,1.07.39,1.69.39,1.22-.14,1.72-.41c.5-.27.92-.63,1.27-1.08.35-.45.61-.95.79-1.5.18-.56.27-1.12.27-1.7,0-.62-.1-1.2-.29-1.77-.19-.56-.47-1.06-.82-1.49-.35-.43-.78-.77-1.28-1.03-.5-.26-1.05-.39-1.67-.39-.65,0-1.22.14-1.73.41-.5.27-.93.62-1.28,1.06-.35.43-.62.93-.8,1.49-.19.56-.28,1.13-.28,1.71Z"/>
        <path class="cls-1" d="M57.08,77.77v9.06h-2.02v-12.86h1.58l7.31,9.27v-9.25h2.04v12.84h-1.67l-7.24-9.06Z"/>
      </g>
      <path class="cls-5" d="M18.3,0h0C20.09,0,21.54,1.45,21.54,3.24v8.12c0,1.79-1.45,3.24-3.24,3.24h0c-1.79,0-3.24-1.45-3.24-3.24V3.24C15.07,1.45,16.52,0,18.3,0Z"/>
      <path class="cls-10" d="M74.51,0h0C76.3,0,77.75,1.45,77.75,3.24v8.12c0,1.79-1.45,3.24-3.24,3.24h0c-1.79,0-3.24-1.45-3.24-3.24V3.24C71.27,1.45,72.73,0,74.51,0Z"/>
    </g>
  </g>
</svg>