<?xml version="1.0" encoding="UTF-8"?>
<svg id="Layer_2" data-name="Layer 2" xmlns="http://www.w3.org/2000/svg" xmlns:xlink="http://www.w3.org/1999/xlink" viewBox="0 0 104.08 100.8">
  <defs>
    <style>
      .cls-1 {
        fill: url(#linear-gradient);
      }
    </style>
    <linearGradient id="linear-gradient" x1="0" y1="50.4" x2="104.08" y2="50.4" gradientUnits="userSpaceOnUse">
      <stop offset="0" stop-color="#36f2ed"/>
      <stop offset="1" stop-color="#0053df"/>
    </linearGradient>
  </defs>
  <g id="_ëÎÓÈ_1" data-name="ëÎÓÈ 1">
    <path class="cls-1" d="M102.97,3.08c-3.41-2.01-7.29-3.08-11.22-3.08-5.24,0-10.23,1.82-14.22,5.15l-9.01-3.24c-.84-.32-1.73-.49-2.64-.49-4.2,0-8.05,3.49-10.23,7.41l-3.58.26c-2.03-3.29-5.84-5.42-10.03-5.11-2.87.21-5.5,1.49-7.39,3.62-1.91,2.14-2.85,4.88-2.65,7.71.04.6.15,1.18.29,1.75l-20.74,23.59c-.36,0-.72,0-1.08.02C4.28,41.12-.41,46.41.03,52.47c.41,5.72,5.33,10.2,11.19,10.2.28,0,.56,0,.84-.03.31-.02.63-.06.93-.11l17.5,18.37c-3.3,1.96-6.22,4.58-8.57,7.74h-6.76c-1.25,0-2.26,1.01-2.26,2.26v7.64c0,1.25,1.01,2.26,2.26,2.26h61.37c1.25,0,2.26-1.01,2.26-2.26v-7.64c0-1.25-1.01-2.26-2.26-2.26h-7.53c-.5-.67-1.02-1.32-1.56-1.94l2.12-2.54c.8-.96.67-2.38-.29-3.18l-7.98-6.66c-.46-.38-1.06-.57-1.65-.52-.6.05-1.15.34-1.53.8l-3.15,3.77c-3.02-1.03-6.22-1.59-9.49-1.59-.64,0-1.28.02-1.91.07l-21.4-22.37c.32-1.17.45-2.39.36-3.63-.08-1.17-.36-2.29-.8-3.33l19.77-22.49c.42.05.85.08,1.28.08.27,0,.54,0,.8-.03,2.87-.21,5.5-1.49,7.39-3.62,1.07-1.2,1.82-2.59,2.25-4.08l.61-.04c.31,1.96,1.2,3.65,2.66,4.86l7.22,6.36c-1.76,9.1,2.4,18.52,10.46,23.28.35.21.75.31,1.15.31.19,0,.38-.02.56-.07.58-.15,1.08-.52,1.38-1.04l8.52-14.41c1.29.48,2.64.74,4,.74.93,0,1.87-.11,2.8-.35,2.96-.74,5.42-2.58,6.93-5.19,2.74-4.72,1.56-10.67-2.51-14.19l6.79-11.49c.63-1.07.28-2.46-.8-3.09ZM4.53,52.15c-.26-3.57,2.55-6.7,6.27-6.96.17-.01.34-.02.51-.02,3.51,0,6.44,2.64,6.69,6.01.09,1.25-.19,2.46-.8,3.54-.18.28-.42.61-.61.86l-.23.31c-.74.82-1.65,1.44-2.67,1.82-.17.05-.34.1-.53.15-.05.01-.1.04-.15.06-.42.11-.84.18-1.28.21-3.74.27-6.94-2.46-7.2-5.99ZM74.26,96.28H17.41v-3.13h5.45c.06,0,.12.03.18.03h44.8c.06,0,.12-.02.18-.03h6.22v3.13ZM60.12,79.23l4.51,3.77-.34.41-4.51-3.77.34-.41ZM63.07,88.64H27.85c2.12-2.14,4.59-3.85,7.29-5.09l4.25-1.5c1.96-.49,3.99-.75,6.06-.75,6.68,0,12.99,2.68,17.61,7.34ZM38,77.75c-1.11.29-2.2.64-3.26,1.06l-17.09-17.94c.84-.53,1.62-1.23,2.27-2.18l18.2,19.02-.12.04ZM19.09,43.66c-.31-.27-.63-.51-.94-.74-.46-.39-1.02-.75-1.64-1.06l17.98-20.45c.66.83,1.45,1.53,2.33,2.09l-17.72,20.16ZM47.58,18.46c-1.11,1.24-2.65,1.99-4.34,2.12-2.36.18-4.51-.95-5.71-2.72-.02-.03-.04-.07-.06-.1-.03-.06-.07-.12-.11-.17-.47-.77-.77-1.65-.84-2.6-.12-1.6.42-3.16,1.51-4.38,1.11-1.24,2.65-1.99,4.34-2.12.16-.01.32-.02.48-.02,3.24,0,5.96,2.41,6.23,5.51v.2c.1,1.57-.43,3.09-1.5,4.28ZM95.58,29.58c-.89,1.54-2.36,2.63-4.12,3.07-1.11.28-2.25.28-3.35.01l6.5-11.01c1.97,2.16,2.45,5.36.96,7.93ZM74.59,46.69c-5.46-4.27-8-11.51-6.21-18.35.22-.83-.05-1.7-.69-2.27l-8.28-7.29c-1.93-1.61-1.09-4.7-.63-5.96,1.35-3.73,4.6-6.88,7.11-6.88.36,0,.69.06,1.07.21l10.31,3.71c.8.29,1.7.1,2.32-.49,3.29-3.12,7.61-4.85,12.16-4.85,2.38,0,4.73.49,6.91,1.42l-24.07,40.74Z"/>
  </g>
</svg>