<?xml version="1.0" encoding="UTF-8"?>
<svg id="Layer_2" data-name="Layer 2" xmlns="http://www.w3.org/2000/svg" xmlns:xlink="http://www.w3.org/1999/xlink" viewBox="0 0 109.57 95.18">
  <defs>
    <style>
      .cls-1 {
        fill: url(#linear-gradient-8);
      }

      .cls-2 {
        fill: url(#linear-gradient-7);
      }

      .cls-3 {
        fill: url(#linear-gradient-5);
      }

      .cls-4 {
        fill: url(#linear-gradient-6);
      }

      .cls-5 {
        fill: url(#linear-gradient-9);
      }

      .cls-6 {
        fill: url(#linear-gradient-4);
      }

      .cls-7 {
        fill: url(#linear-gradient-3);
      }

      .cls-8 {
        fill: url(#linear-gradient-2);
      }

      .cls-9 {
        fill: url(#linear-gradient);
      }

      .cls-10 {
        fill: url(#linear-gradient-10);
      }

      .cls-11 {
        fill: url(#linear-gradient-11);
      }

      .cls-12 {
        fill: url(#linear-gradient-12);
      }
    </style>
    <linearGradient id="linear-gradient" x1="0" y1="34.09" x2="104.14" y2="34.09" gradientUnits="userSpaceOnUse">
      <stop offset="0" stop-color="#36f2ed"/>
      <stop offset="1" stop-color="#0053df"/>
    </linearGradient>
    <linearGradient id="linear-gradient-2" x1="28.23" y1="57.94" x2="63.92" y2="57.94" xlink:href="#linear-gradient"/>
    <linearGradient id="linear-gradient-3" x1="41.57" y1="59.88" x2="79.68" y2="59.88" xlink:href="#linear-gradient"/>
    <linearGradient id="linear-gradient-4" x1="73.5" y1="70.39" x2="96.33" y2="70.39" xlink:href="#linear-gradient"/>
    <linearGradient id="linear-gradient-5" x1="90.2" y1="48.33" x2="109.57" y2="48.33" xlink:href="#linear-gradient"/>
    <linearGradient id="linear-gradient-6" x1="75.79" y1="22.66" x2="90.83" y2="22.66" xlink:href="#linear-gradient"/>
    <linearGradient id="linear-gradient-7" x1="37.72" y1="18.83" x2="72.81" y2="18.83" xlink:href="#linear-gradient"/>
    <linearGradient id="linear-gradient-8" x1="40.03" y1="13.42" x2="57.26" y2="13.42" xlink:href="#linear-gradient"/>
    <linearGradient id="linear-gradient-9" x1="18.09" y1="28.64" x2="35.48" y2="28.64" xlink:href="#linear-gradient"/>
    <linearGradient id="linear-gradient-10" x1="9.26" y1="54.57" x2="26.41" y2="54.57" xlink:href="#linear-gradient"/>
    <linearGradient id="linear-gradient-11" x1="78.66" y1="60.2" x2="94.68" y2="60.2" xlink:href="#linear-gradient"/>
    <linearGradient id="linear-gradient-12" x1="96.21" y1="44.4" x2="109.32" y2="44.4" xlink:href="#linear-gradient"/>
  </defs>
  <g id="_ëÎÓÈ_1" data-name="ëÎÓÈ 1">
    <g>
      <path class="cls-9" d="M21.32,68.18c-.09,0-.18,0-.27,0-6.77-.22-10.28-5.42-11.42-10.34-6.23-1.99-9.63-6.71-9.63-13.41,0-5.99,4.2-8.79,8.56-10.27-2.03-2.67-2.92-5.76-2.5-8.88.51-3.73,2.84-6.8,6.24-8.21,4.73-1.97,8.98-1.34,12.36-.1-.25-3.07-.2-6.46,3.01-9.97,2.18-2.39,5.95-3.92,9.64-3.92.04,0,.09,0,.13,0,1.66.02,3.16.35,4.41.96C44.75.84,48.79-.41,54.35.12c4.31.4,9.31,2.82,12.99,6.15,2.73-3.04,7.14-4.19,12.16-3.03,4.47,1.03,8.75,5.3,10.43,9.78.75-.34,1.54-.57,2.36-.68,2.38-.3,4.83.45,6.91,2.11,4.36,3.48,5.98,8.8,4.25,13.88-1.94,5.67-12.76,14.41-23.91,11.11-1.52-.45-2.94-.98-4.32-1.5-5.6-2.1-10.02-3.76-17.64,1.06-10.57,6.68-30.45,10.3-39.39,7.18-1.18-.41-1.8-1.7-1.39-2.88.41-1.18,1.7-1.8,2.88-1.39,6.98,2.44,25.44-.39,35.49-6.73,9.52-6.01,15.68-3.7,21.64-1.47,1.3.49,2.65.99,4.01,1.4,8.49,2.51,17.13-4.66,18.36-8.24,1.66-4.85-1.72-8.03-2.79-8.89-1.12-.89-2.37-1.31-3.53-1.16-1.02.13-1.93.69-2.63,1.63-.59.79-1.63,1.1-2.56.77-.93-.33-1.54-1.23-1.5-2.21.13-3.52-3.96-8.51-7.68-9.37-1.55-.36-6.76-1.19-8.77,3.15-.32.7-.98,1.19-1.75,1.29-.77.1-1.53-.19-2.03-.79-2.88-3.43-8.05-6.31-12.01-6.68-4.89-.46-7.71.63-9.75,3.77-.39.59-1.03.97-1.73,1.02-.71.05-1.39-.23-1.86-.76-.56-.64-1.76-1.03-3.2-1.04-.03,0-.06,0-.08,0-2.4,0-4.98,1-6.3,2.45-2.24,2.46-2.03,4.62-1.75,7.6.09.93.18,1.9.2,2.92.02.8-.39,1.55-1.08,1.97-.69.42-1.54.44-2.25.06-3.12-1.68-7.31-3.35-12.09-1.36-1.9.79-3.21,2.53-3.49,4.65-.37,2.72,1,5.52,3.75,7.67.69.54,1.01,1.43.81,2.29-.2.86-.87,1.52-1.73,1.7-7.8,1.64-8.85,4.4-8.85,6.88,0,5.12,2.49,8.2,7.6,9.42.91.22,1.59.97,1.71,1.89.51,3.73,2.72,7.77,7.36,7.93,2.68.11,5.45-3.19,7.91-6.07,1-1.17,1.94-2.28,2.91-3.23,4.07-3.98,10.14-4.39,14.51-4.04,1.24.1,2.17,1.19,2.07,2.43-.1,1.24-1.19,2.17-2.43,2.07-2.82-.23-7.99-.17-10.99,2.77-.82.8-1.7,1.83-2.63,2.93-3.06,3.6-6.52,7.67-11.23,7.67Z"/>
      <path class="cls-8" d="M48.39,74.66c-1.11,0-2.23-.12-3.36-.36-9.13-1.95-15.39-11.2-16.56-13.57-.55-1.12-.1-2.47,1.02-3.03,1.12-.56,2.47-.1,3.03,1.02,1.23,2.47,6.69,9.71,13.46,11.15,3.75.8,7.3-.24,10.86-3.17,3.76-3.1,2.85-6.03.91-10.93-1.7-4.3-3.81-9.65,1.52-14.04.96-.79,2.39-.66,3.18.31.79.96.66,2.39-.31,3.18-2.54,2.09-2.04,4.21-.19,8.89,1.79,4.53,4.24,10.73-2.24,16.08-3.6,2.97-7.4,4.47-11.31,4.47Z"/>
      <path class="cls-7" d="M66.66,78.82c-2.59,0-5.03-.71-7-1.74-3.33-1.74-5.37-4.34-5.45-6.91-.67-1.75-4.1-9.79-9.85-8.39-1.21.29-2.43-.45-2.73-1.66-.3-1.21.45-2.43,1.66-2.73,4.45-1.08,8.55.7,11.88,5.16,2.28,3.07,3.4,6.38,3.45,6.52.1.29.13.59.11.9-.04.51.8,1.94,3.03,3.1,2.83,1.48,7.1,2.04,10.58-.84,4.38-3.61,3.05-6.6-.12-12.49-.89-1.65-1.81-3.35-2.57-5.18-1.25-2.99-1.36-5.75-.33-8.21,1.52-3.63,4.92-5.09,5.3-5.25,1.16-.47,2.47.09,2.94,1.25.46,1.15-.09,2.46-1.23,2.93-.81.34-4.69,2.31-2.51,7.54.68,1.63,1.54,3.23,2.38,4.78,3.03,5.62,6.46,11.98-.98,18.12-2.71,2.24-5.72,3.09-8.55,3.09Z"/>
      <path class="cls-6" d="M91.71,95.18c-1.53,0-3-.7-3.89-1.95-1.14-1.59-2.39-3.85-3.71-6.24-2.48-4.48-6.22-11.24-8.87-11.86-1.21-.29-1.97-1.5-1.68-2.72.29-1.21,1.51-1.97,2.72-1.68,4.6,1.09,8.25,7.69,11.78,14.07,1.26,2.27,2.45,4.42,3.43,5.8.02.02.06.04.12.05.05,0,.1,0,.14,0-1.57-8.24-1.49-23.85-.83-32.09.28-3.47-.27-6.32-1.46-7.62-.52-.57-1.16-.83-2.01-.83-1.25,0-2.26-1.01-2.26-2.26,0-1.25,1.01-2.26,2.26-2.26h0c2.11,0,3.95.79,5.33,2.28,2.69,2.92,2.92,7.62,2.65,11.05-.66,8.09-.74,23.42.82,31.16.39,1.97-.62,3.85-2.53,4.67-.65.28-1.34.42-2.01.42Z"/>
      <path class="cls-3" d="M92.47,70c-.76,0-1.5-.38-1.93-1.08-.65-1.06-.32-2.45.74-3.11.16-.1,11.65-7.34,13.51-18.19.98-5.7-.89-11.52-5.54-17.3-.78-.97-.63-2.39.34-3.18.97-.78,2.39-.63,3.18.34,5.51,6.84,7.68,13.88,6.47,20.92-2.23,12.9-15.05,20.91-15.59,21.25-.37.23-.78.33-1.18.33Z"/>
      <path class="cls-4" d="M78.69,30.36c-.27,0-.54-.01-.82-.03-1.24-.1-2.17-1.19-2.07-2.43.1-1.24,1.19-2.17,2.43-2.07,5.71.44,8.13-9.05,8.15-9.15.3-1.21,1.52-1.95,2.73-1.65,1.21.3,1.95,1.52,1.66,2.73-.13.53-3.18,12.61-12.08,12.61Z"/>
      <path class="cls-2" d="M55.7,30.08c-3.27,0-5.88-.85-7.98-1.53-3.1-1.01-4.55-1.4-6.47-.1-1.03.7-2.44.43-3.14-.6-.7-1.03-.43-2.44.6-3.14,3.83-2.59,7.17-1.51,10.4-.46,3.14,1.02,6.39,2.08,11.32.56,4.31-1.33,6.97-3.54,7.68-6.41.68-2.73-.53-5.47-2.03-6.97-.88-.88-.88-2.31,0-3.19.88-.88,2.31-.88,3.19,0,2.93,2.93,4.19,7.34,3.22,11.25-.78,3.13-3.27,7.34-10.73,9.64-2.24.69-4.25.95-6.06.95Z"/>
      <path class="cls-1" d="M55,21.95c-.06,0-.12,0-.18,0-9.36-.76-14.43-13.44-14.64-13.98-.45-1.16.12-2.47,1.28-2.93,1.16-.46,2.47.12,2.93,1.28,1.16,2.95,5.36,10.68,10.79,11.12,1.24.1,2.17,1.19,2.07,2.43-.1,1.18-1.08,2.08-2.25,2.08Z"/>
      <path class="cls-5" d="M29.53,38.91c-1.83,0-3.51-.94-4.7-1.6-.63-.35-1.68-.94-2.04-.91,0,0-.19.14-.48.65-.61,1.09-1.99,1.48-3.08.87-1.09-.61-1.48-1.99-.87-3.08,2.69-4.8,6.72-2.55,8.66-1.47,2.05,1.14,2.5,1.2,2.99.8.59-.49.88-1.05.93-1.83.22-3.37-3.93-8.6-5.4-10.17-.85-.91-.81-2.34.1-3.19.91-.85,2.34-.81,3.19.1.72.76,7.01,7.64,6.62,13.56-.13,2.02-1.02,3.76-2.58,5.04-1.12.92-2.27,1.25-3.36,1.25Z"/>
      <path class="cls-10" d="M11.52,59.28c-.69,0-1.36-.31-1.81-.9-.75-1-.55-2.41.45-3.16.27-.2,6.69-4.97,13.87-5.35,1.24-.07,2.31.89,2.38,2.14s-.89,2.31-2.14,2.38c-5.82.31-11.34,4.41-11.4,4.45-.41.31-.88.45-1.35.45Z"/>
      <path class="cls-11" d="M90.34,70.78c-3.29,0-6.18-1.24-8.32-3.61-3.34-3.7-4.26-9.65-2.47-15.92.34-1.2,1.59-1.9,2.79-1.55,1.2.34,1.89,1.59,1.55,2.79-1.36,4.77-.81,9.12,1.48,11.66,1.6,1.77,3.9,2.45,6.64,1.97,1.23-.22,2.4.6,2.62,1.83.22,1.23-.6,2.4-1.83,2.62-.84.15-1.67.22-2.47.22Z"/>
      <path class="cls-12" d="M100.8,49.5c-1.09,0-2.19-.26-3.29-.77-1.13-.53-1.61-1.88-1.08-3.01.53-1.13,1.88-1.61,3.01-1.08,1.1.52,1.8.35,2.23.17,1.69-.69,2.97-3.22,3.28-4.06.44-1.17,1.74-1.76,2.9-1.32,1.17.44,1.76,1.73,1.33,2.9-.19.52-1.98,5.1-5.8,6.66-.83.34-1.7.51-2.58.51Z"/>
    </g>
  </g>
</svg>