<?xml version="1.0" encoding="UTF-8"?>
<svg id="Layer_2" data-name="Layer 2" xmlns="http://www.w3.org/2000/svg" xmlns:xlink="http://www.w3.org/1999/xlink" viewBox="0 0 97.47 111.38">
  <defs>
    <style>
      .cls-1 {
        fill: url(#linear-gradient-2);
      }

      .cls-2 {
        fill: url(#linear-gradient);
      }
    </style>
    <linearGradient id="linear-gradient" x1="0" y1="55.69" x2="97.47" y2="55.69" gradientUnits="userSpaceOnUse">
      <stop offset="0" stop-color="#36f2ed"/>
      <stop offset="1" stop-color="#0053df"/>
    </linearGradient>
    <linearGradient id="linear-gradient-2" x1="17.38" y1="33.7" x2="80.1" y2="33.7" xlink:href="#linear-gradient"/>
  </defs>
  <g id="_ëÎÓÈ_1" data-name="ëÎÓÈ 1">
    <g>
      <path class="cls-2" d="M97.47,4.97c0-2.74-2.23-4.97-4.97-4.97H4.97C2.23,0,0,2.23,0,4.97s2.14,4.86,4.8,4.95c-.17.7-.27,1.43-.27,2.18v46.14c0,.75.1,1.48.27,2.18-2.66.09-4.8,2.27-4.8,4.95s2.23,4.97,4.97,4.97h39.3c-.06.32-.09.64-.09.98v11.82c-.25.15-.47.33-.67.53l-16.87,17.53c-.79.82-1.13,2.02-.92,3.28.19,1.12.79,2.22,1.69,3.08.9.87,2.02,1.43,3.15,1.57,1.26.16,2.44-.22,3.24-1.04l10.38-10.78v8.87c0,2.86,2.23,5.19,4.97,5.19s4.97-2.33,4.97-5.19v-8.9l11.92,11.46c.84.81,2.05,1.17,3.31.98,1.15-.17,2.27-.76,3.14-1.67.88-.91,1.43-2.05,1.55-3.21.14-1.27-.27-2.46-1.11-3.27h0l-18.36-17.66c-.14-.13-.29-.26-.45-.36v-12.24c0-.33-.04-.66-.09-.98h38.49c2.74,0,4.97-2.23,4.97-4.97,0-2.04-1.24-3.79-3-4.56.24-.82.37-1.68.37-2.57V12.11c0-.9-.14-1.76-.37-2.58,1.76-.77,3-2.52,3-4.56ZM70.97,103.62c.29.28.29.71.26.95-.06.53-.34,1.1-.78,1.55-.44.46-.99.76-1.52.84-.24.03-.67.05-.96-.23l-14.29-13.75c-.4-.39-1-.5-1.52-.28-.52.22-.85.73-.85,1.29v12.19c0,1.31-.97,2.38-2.16,2.38s-2.16-1.07-2.16-2.38v-12.35c0-.57-.35-1.09-.88-1.3-.17-.07-.35-.1-.52-.1-.37,0-.74.15-1.01.43l-12.79,13.29c-.23.24-.64.23-.86.2-.53-.07-1.1-.36-1.56-.81-.46-.45-.78-1-.87-1.53-.04-.22-.06-.62.17-.87l16.87-17.53c.08-.08.2-.14.36-.18.64-.15,1.09-.71,1.09-1.37v-12.76c0-.35.07-.68.19-.98h3.93c.12.3.19.63.19.98v13.11c0,.61.39,1.15.98,1.34.14.04.25.1.33.18l18.36,17.66ZM94.66,65.38c0,1.19-.97,2.16-2.16,2.16H4.97c-1.19,0-2.16-.97-2.16-2.16s.97-2.16,2.16-2.16h87.53c1.19,0,2.16.97,2.16,2.16ZM8.74,58.25V12.11c0-.78.19-1.51.51-2.16h80.87c.32.66.51,1.38.51,2.16v46.14c0,.78-.19,1.51-.51,2.16H9.25c-.32-.66-.51-1.39-.51-2.16ZM92.5,7.14H4.97c-1.19,0-2.16-.97-2.16-2.16s.97-2.16,2.16-2.16h87.53c1.19,0,2.16.97,2.16,2.16s-.97,2.16-2.16,2.16Z"/>
      <path class="cls-1" d="M79.26,18.22c-.93-.7-2.25-.51-2.95.42l-12.74,16.91-16.99-8.49c-.95-.47-2.1-.17-2.69.72l-11.74,17.61h-12.67c-1.16,0-2.1.94-2.1,2.11s.94,2.1,2.1,2.1h13.8c.7,0,1.36-.35,1.75-.94l11.34-17.01,16.89,8.45c.91.45,2.01.2,2.62-.62l13.8-18.31c.7-.93.51-2.25-.42-2.95Z"/>
    </g>
  </g>
</svg>