<?xml version="1.0" encoding="UTF-8"?>
<svg id="Layer_2" data-name="Layer 2" xmlns="http://www.w3.org/2000/svg" viewBox="0 0 79.53 59.91">
  <defs>
    <style>
      .cls-1 {
        fill: #2ab6f4;
      }

      .cls-2 {
        fill: none;
        stroke: #2ab6f4;
        stroke-miterlimit: 10;
        stroke-width: 4.09px;
      }
    </style>
  </defs>
  <g id="_ëÎÓÈ_1" data-name="ëÎÓÈ 1">
    <g>
      <path class="cls-1" d="M26.34,12.15h-12.56c-1.11,0-2.07.94-2.07,2.04s.95,2.04,2.07,2.04h12.56c1.11,0,2.07-.94,2.07-2.04-.16-1.1-1.11-2.04-2.07-2.04Z"/>
      <path class="cls-1" d="M26.34,23.16h-12.56c-1.11,0-2.07.94-2.07,2.04s.95,2.04,2.07,2.04h12.56c1.11,0,2.07-.94,2.07-2.04-.16-1.1-1.11-2.04-2.07-2.04Z"/>
      <path class="cls-1" d="M26.34,34.16h-12.56c-1.11,0-2.07.94-2.07,2.04s.95,2.04,2.07,2.04h12.56c1.11,0,2.07-.94,2.07-2.04-.16-1.1-1.11-2.04-2.07-2.04Z"/>
      <path class="cls-1" d="M26.34,45.17h-12.56c-1.11,0-2.07.94-2.07,2.04s.95,2.04,2.07,2.04h12.56c1.11,0,2.07-.94,2.07-2.04-.16-1.1-1.11-2.04-2.07-2.04Z"/>
    </g>
    <rect class="cls-2" x="2.04" y="2.04" width="75.44" height="55.82" rx="18.28" ry="18.28"/>
    <line class="cls-2" x1="35.27" y1="2.04" x2="35.27" y2="57.87"/>
  </g>
</svg>