<?xml version="1.0" encoding="UTF-8"?>
<svg id="Layer_2" data-name="Layer 2" xmlns="http://www.w3.org/2000/svg" xmlns:xlink="http://www.w3.org/1999/xlink" viewBox="0 0 96.56 81.61">
  <defs>
    <style>
      .cls-1 {
        fill: url(#linear-gradient-8);
      }

      .cls-2 {
        fill: url(#linear-gradient-7);
      }

      .cls-3 {
        fill: url(#linear-gradient-5);
      }

      .cls-4 {
        fill: url(#linear-gradient-6);
      }

      .cls-5 {
        fill: url(#linear-gradient-9);
      }

      .cls-6 {
        fill: url(#linear-gradient-4);
      }

      .cls-7 {
        fill: url(#linear-gradient-3);
      }

      .cls-8 {
        fill: url(#linear-gradient-2);
      }

      .cls-9 {
        fill: url(#linear-gradient);
      }

      .cls-10 {
        fill: url(#linear-gradient-10);
      }

      .cls-11 {
        fill: url(#linear-gradient-11);
      }

      .cls-12 {
        fill: url(#linear-gradient-12);
      }

      .cls-13 {
        fill: url(#linear-gradient-13);
      }

      .cls-14 {
        fill: url(#linear-gradient-14);
      }

      .cls-15 {
        fill: url(#linear-gradient-15);
      }

      .cls-16 {
        fill: url(#linear-gradient-16);
      }
    </style>
    <linearGradient id="linear-gradient" x1=".39" y1="80.92" x2="96.1" y2=".62" gradientUnits="userSpaceOnUse">
      <stop offset="0" stop-color="#36f2ed"/>
      <stop offset="1" stop-color="#0053df"/>
    </linearGradient>
    <linearGradient id="linear-gradient-2" x1="23.93" y1="46.4" x2="39.14" y2="33.64" xlink:href="#linear-gradient"/>
    <linearGradient id="linear-gradient-3" x1="14.1" y1="44.73" x2="24.45" y2="36.04" xlink:href="#linear-gradient"/>
    <linearGradient id="linear-gradient-4" x1="26.01" y1="32.01" x2="36.27" y2="23.4" xlink:href="#linear-gradient"/>
    <linearGradient id="linear-gradient-5" x1="11.51" y1="34.26" x2="26.22" y2="21.91" xlink:href="#linear-gradient"/>
    <linearGradient id="linear-gradient-6" x1="64.02" y1="71.32" x2="84.17" y2="54.41" xlink:href="#linear-gradient"/>
    <linearGradient id="linear-gradient-7" x1="58.78" y1="41.15" x2="77.77" y2="25.21" xlink:href="#linear-gradient"/>
    <linearGradient id="linear-gradient-8" x1="58.76" y1="30.24" x2="77.71" y2="14.34" xlink:href="#linear-gradient"/>
    <linearGradient id="linear-gradient-9" x1="58.81" y1="52.14" x2="77.77" y2="36.23" xlink:href="#linear-gradient"/>
    <linearGradient id="linear-gradient-10" x1="49.75" y1="68.07" x2="61.97" y2="57.82" xlink:href="#linear-gradient"/>
    <linearGradient id="linear-gradient-11" x1="9.94" y1="63.33" x2="15.11" y2="59" xlink:href="#linear-gradient"/>
    <linearGradient id="linear-gradient-12" x1="9.93" y1="71.92" x2="15.07" y2="67.62" xlink:href="#linear-gradient"/>
    <linearGradient id="linear-gradient-13" x1="21.96" y1="63.26" x2="27.03" y2="59.01" xlink:href="#linear-gradient"/>
    <linearGradient id="linear-gradient-14" x1="21.93" y1="71.93" x2="26.96" y2="67.71" xlink:href="#linear-gradient"/>
    <linearGradient id="linear-gradient-15" x1="33.87" y1="71.94" x2="38.88" y2="67.74" xlink:href="#linear-gradient"/>
    <linearGradient id="linear-gradient-16" x1="33.83" y1="63.23" x2="38.83" y2="59.04" xlink:href="#linear-gradient"/>
  </defs>
  <g id="_ëÎÓÈ_1" data-name="ëÎÓÈ 1">
    <g>
      <path class="cls-9" d="M1.78.01h63.46s18.93,0,18.93,0c3.43,0,6.89-.05,10.32,0,.88.01,1.16.11,1.74.74.54,1.49.27,16.36.27,19.47v33.34s-.02,17.41-.02,17.41c0,2.91.1,5.99-.05,8.9-.05.91-.39,1.09-1.07,1.65-.89.1-2.6.05-3.54.05l-6.2-.02h-20s-63.02.03-63.02.03c-.9,0-2.15,0-2.33-1.15-.35-2.27-.21-4.69-.21-7v-11.87s.02-45.91.02-45.91V5.94c.01-1.51-.32-3.97.38-5.28C.7.19,1.29.09,1.78.01ZM3.87,77.65l58.75.05c9.76.01,20.21.2,29.9.02.13-2,0-5.24,0-7.37l-.02-14.84-.06-41.35c-4.1-.29-10.42-.16-14.69-.16l-27.17.03h-30.79c-4.86,0-11.08-.18-15.81.04l-.03,43.18c.04,6.81.01,13.62-.08,20.42Z"/>
      <path class="cls-8" d="M38.98,35.29l1.59.05c-.22,2.43-.98,4.78-2.23,6.88-2.3,3.82-5.82,5.95-10.08,6.99-.62.12-1.15.17-1.77.24v-14.12c4.09-.09,8.37-.03,12.49-.04Z"/>
      <path class="cls-7" d="M10.06,35.35c4.6-.07,9.2-.08,13.79-.03-.09,4.63-.05,9.4-.07,14.04l-.14.1c-7.58-.66-12.83-6.74-13.58-14.11Z"/>
      <path class="cls-6" d="M26.49,18.91c6.73.32,13.99,6.72,13.97,13.67-4.66-.04-9.31-.04-13.97,0v-13.67Z"/>
      <path class="cls-3" d="M23.02,19c.34-.05.5-.12.79.04.11,1.19.04,3.47.03,4.73l-.05,8.83c-3.89-.1-7.95-.05-11.86-.04l-1.81.03c1.21-7.67,5.19-12.01,12.9-13.6Z"/>
      <path class="cls-4" d="M81.92,54.01c.77-.12,1.52-.1,2.17.39.56.42.86,1.03.94,1.72.34,3.12-2.63,2.96-2.99,3.38-.38.45-.68,1.06-1.02,1.55-.48.7-1.04,1.36-1.58,2.02.17,1.63.14,3.45-1.82,4-.66.18-1.38.07-1.96-.3-.94-.6-1.23-1.38-1.45-2.41-.61-.24-1.27-.45-1.8-.81-1.14.57-1.34.86-2.66.63-.86.6-1.61,1.19-2.4,1.83-1.05.86-.49,1.27-.58,2.41-.05.6-.9,1.27-1.38,1.61-1.03.22-1.91.27-2.77-.44-.57-.49-.91-1.19-.93-1.94-.08-2.09,1.65-2.76,3.42-2.75,1.02-.77,2.05-1.59,3.06-2.38-.3-1.37.26-2.65,1.5-3.31,1-.53,2.68.31,2.89,1.41.05.26.21.57.35.8.33.2,2.4,1.12,2.6,1.05.55-.2,1.15-.34,1.88-.43l.19-.02c.66-1.17,2.06-3.23,2.99-4.16-.39-1.91-.33-2.79,1.36-3.85Z"/>
      <path class="cls-2" d="M53.39,31.6c9.81-.13,19.92-.03,29.74,0,.08,1.03.02,2.16,0,3.2-2.99-.19-7.69-.03-10.8-.02l-18.93-.05c-.04-1.01,0-2.1,0-3.11Z"/>
      <path class="cls-1" d="M54.76,20.71c9.33,0,19.01-.15,28.31.01v3.09s-1.6-.04-1.6-.04l-28.1.03c-.05-.91-.01-2.08,0-3.01l1.4-.09Z"/>
      <path class="cls-5" d="M53.62,42.7c7.3-.25,14.75.09,22.07-.08,2.44-.06,5.02-.05,7.46.02,0,.79.06,2.2-.06,2.92l-.23.12c-9.53-.19-19.9-.05-29.47,0-.06-.69-.24-2.51.23-2.97Z"/>
      <path class="cls-10" d="M55.4,51.22c1.19-.1,1.7.44,1.74,1.6.06,1.69.05,3.37.05,5.06-.01,5.09.01,10.18-.08,15.27-.02.88-.16.96-.78,1.52-.87-.02-1.66-.22-1.74-1.28-.09-1.17-.05-2.37-.06-3.55v-6.35s-.01-6.94-.01-6.94c0-1.32-.02-2.68.04-3.99.03-.68.32-.9.83-1.33Z"/>
      <path class="cls-11" d="M12.16,57.81c1.83-.2,3.48,1.1,3.71,2.92.23,1.82-1.04,3.5-2.86,3.76-1.21.18-2.41-.31-3.16-1.28-.74-.97-.91-2.26-.43-3.38.48-1.12,1.52-1.9,2.73-2.03Z"/>
      <path class="cls-12" d="M11.5,66.57c1.76-.55,3.64.42,4.2,2.18.56,1.76-.41,3.64-2.17,4.2-1.77.57-3.66-.41-4.22-2.17-.56-1.77.42-3.66,2.19-4.21Z"/>
      <path class="cls-13" d="M23.65,57.93c1.76-.47,3.57.58,4.04,2.35.47,1.76-.57,3.57-2.33,4.05-1.77.48-3.59-.57-4.06-2.34s.58-3.59,2.35-4.05Z"/>
      <path class="cls-14" d="M24.04,66.56c1.78-.22,3.4,1.02,3.65,2.79.25,1.77-.96,3.42-2.72,3.71-1.17.19-2.36-.27-3.09-1.2-.74-.93-.92-2.19-.47-3.28.45-1.1,1.46-1.87,2.64-2.02Z"/>
      <path class="cls-15" d="M35.52,66.68c1.74-.47,3.54.56,4.01,2.31.47,1.75-.57,3.54-2.31,4.01-1.74.46-3.53-.57-4-2.31-.47-1.74.56-3.53,2.3-4Z"/>
      <path class="cls-16" d="M35.64,57.94c1.75-.38,3.48.72,3.87,2.47.39,1.74-.69,3.48-2.43,3.89-1.77.42-3.53-.69-3.93-2.46-.4-1.77.72-3.52,2.49-3.91Z"/>
    </g>
  </g>
</svg>