<?xml version="1.0" encoding="UTF-8"?>
<svg id="Layer_2" data-name="Layer 2" xmlns="http://www.w3.org/2000/svg" viewBox="0 0 87.13 105.54">
  <defs>
    <style>
      .cls-1 {
        fill: #2ab6f4;
      }
    </style>
  </defs>
  <g id="_ëÎÓÈ_1" data-name="ëÎÓÈ 1">
    <g>
      <path class="cls-1" d="M84.87,104.1c-1.25,0-2.26-1.01-2.26-2.26v-15.6c0-14.65-9.71-21.21-19.33-21.21h-.33c-2.07,0-4.07.85-5.51,2.34l-7.46,7.71c-1.65,1.7-3.86,2.66-6.23,2.69-2.37,0-4.61-.86-6.31-2.52l-8.24-8.04c-1.44-1.41-3.34-2.18-5.36-2.18-8.92,0-19.33,5.55-19.33,21.21v15.6c0,1.25-1.01,2.26-2.26,2.26s-2.26-1.01-2.26-2.26v-15.6c0-6.78,2.05-13.04,5.78-17.63,4.3-5.3,10.55-8.1,18.07-8.1,3.2,0,6.22,1.23,8.51,3.47l8.24,8.04c.81.8,1.89,1.23,3.02,1.23.02,0,.04,0,.06,0,1.16-.02,2.24-.48,3.05-1.32l7.46-7.71c2.28-2.36,5.47-3.71,8.76-3.71h.33c7.39,0,13.59,2.8,17.94,8.09,3.81,4.63,5.9,10.9,5.9,17.64v15.6c0,1.25-1.01,2.26-2.26,2.26Z"/>
      <path class="cls-1" d="M43.56,64.52c-13.06,0-23.83-11.05-25.04-25.71-.1-1.24.82-2.34,2.06-2.44,1.25-.11,2.33.82,2.44,2.06,1.02,12.29,9.85,21.56,20.54,21.56,11.38,0,20.64-10.7,20.64-23.86,0-.91-.04-1.82-.13-2.71-.12-1.24.79-2.35,2.03-2.47,1.24-.12,2.35.78,2.47,2.03.1,1.03.15,2.1.15,3.15,0,15.65-11.28,28.38-25.15,28.38Z"/>
      <path class="cls-1" d="M67.15,35.47c-.09,0-.17,0-.26-.01-3.08-.35-14.73-12.08-19.75-18.69-.75-.99-.56-2.41.43-3.17,1-.76,2.41-.56,3.17.43,4.37,5.75,10.65,11.88,14.32,15-.27-8.81-4.43-20.32-14.3-23.45l-.27-.09c-.61-.19-2.21-.71-2.71-.72-1.23-.03-2.25-1.04-2.25-2.27,0-1.23.95-2.23,2.18-2.25,1.12-.03,2.52.41,4.15.93l.26.08c8.43,2.67,19.37,14.43,17.27,32.2-.13,1.15-1.11,1.99-2.24,1.99Z"/>
      <path class="cls-1" d="M19.36,40.89h0c-.96,0-1.79-.53-2.17-1.39-.06-.13-.1-.26-.14-.4-3.14-13.26,1.08-22.21,5.17-27.39C28.62,3.62,38.26,0,44.98,0c3.67,0,6.55,1.02,8.33,2.95,1.35,1.46,1.98,3.37,1.8,5.52-.1,1.35-.41,5.52-16.94,19.33-.16.13-15.71,13.09-18.81,13.09ZM44.98,4.52c-5.45,0-13.78,3.13-19.21,10-4.46,5.65-6.13,12.77-4.88,20.74,3.04-1.99,8.84-6.24,15.14-11.56,11.31-9.53,14.48-14.28,14.58-15.57.07-.91-.12-1.58-.62-2.11-.88-.95-2.7-1.5-5.01-1.5Z"/>
      <path class="cls-1" d="M21.19,105.54c-1.25,0-2.26-1.01-2.26-2.26v-10.19c0-1.25,1.01-2.26,2.26-2.26s2.26,1.01,2.26,2.26v10.19c0,1.25-1.01,2.26-2.26,2.26Z"/>
      <path class="cls-1" d="M66.46,105.54c-1.25,0-2.26-1.01-2.26-2.26v-10.19c0-1.25,1.01-2.26,2.26-2.26s2.26,1.01,2.26,2.26v10.19c0,1.25-1.01,2.26-2.26,2.26Z"/>
    </g>
  </g>
</svg>